<?xml version="1.0" encoding="UTF-8"?>
<svg version="1.1" xmlns="http://www.w3.org/2000/svg" width="1024" height="1024">
<path d="M0 0 C337.92 0 675.84 0 1024 0 C1024 337.92 1024 675.84 1024 1024 C686.08 1024 348.16 1024 0 1024 C0 686.08 0 348.16 0 0 Z " fill="#0F1B2D" transform="translate(0,0)"/>
<path d="M0 0 C0.89323975 -0.00525696 1.78647949 -0.01051392 2.70678711 -0.01593018 C5.65219732 -0.02910853 8.597065 -0.0204012 11.54248047 -0.01025391 C13.59081119 -0.0122749 15.63914122 -0.01518656 17.68746948 -0.01895142 C21.97628645 -0.02337153 26.26491579 -0.01695233 30.55371094 -0.00292969 C36.05642647 0.01418353 41.55870373 0.00430541 47.06140327 -0.01364708 C51.28896401 -0.02447486 55.51642039 -0.02104356 59.74398422 -0.0132637 C61.77341641 -0.01126003 63.80285802 -0.0137268 65.83227921 -0.02070236 C68.66448425 -0.02830262 71.49597343 -0.01673363 74.328125 0 C75.16975189 -0.00607269 76.01137878 -0.01214539 76.87850952 -0.0184021 C82.6001003 0.04437561 82.6001003 0.04437561 84.7441082 1.74060631 C87.20552414 4.88294276 86.55086369 8.67943329 86.44482422 12.50146484 C86.03466797 15.38818359 86.03466797 15.38818359 83.97216797 18.45068359 C80.71365919 20.59991279 77.67300724 21.98882233 74.03466797 23.38818359 C72.17482317 25.24802839 72.81936248 28.33532099 72.76245117 30.82543945 C72.74624222 31.49892929 72.73003326 32.17241913 72.71333313 32.86631775 C72.57190846 39.143507 72.49465862 45.4221574 72.43441486 51.70059872 C72.39374904 55.90940896 72.33417715 60.11583953 72.2253418 64.32348633 C71.11014125 90.06889144 71.11014125 90.06889144 81.81942749 112.82675171 C83.46006773 114.93476904 84.78916583 117.1946764 86.14404297 119.49365234 C87.01960563 120.85732344 87.89973993 122.21807128 88.78466797 123.57568359 C94.53906743 132.54912829 100.08847889 141.63894455 105.61279297 150.75537109 C108.0395534 154.75881829 110.48485739 158.75030149 112.94091797 162.73583984 C117.08252902 169.45776396 121.18926657 176.20053197 125.28466797 182.95068359 C125.65050995 183.55358215 126.01635193 184.15648071 126.39328003 184.77764893 C161.9657299 243.41079954 161.9657299 243.41079954 158.57373047 265.37255859 C155.50118968 276.72288576 148.14606042 286.93870581 138.17529297 293.17724609 C126.42185088 299.35846046 115.41608963 300.83445832 102.3046875 300.77636719 C100.74781935 300.78044074 99.1909541 300.785787 97.63409424 300.79229736 C93.43558639 300.80588592 89.23730159 300.80070698 85.03879023 300.79116011 C80.62463984 300.78351664 76.21050741 300.7906223 71.7963562 300.7953186 C64.38405971 300.80076373 56.97185313 300.79361847 49.55957031 300.77929688 C41.01908624 300.76298482 32.47881723 300.76825337 23.9383384 300.78477609 C16.57744621 300.79844093 9.21661833 300.80028594 1.85571754 300.79246008 C-2.52812793 300.78780937 -6.91187272 300.78708613 -11.29571152 300.79706955 C-15.42121821 300.80580965 -19.54645095 300.79959045 -23.67192841 300.78238678 C-25.17582624 300.77845867 -26.67974759 300.77949194 -28.18363571 300.78617477 C-46.10743489 300.85840821 -60.4497869 297.34748329 -73.73876953 284.81787109 C-77.20401331 281.03649982 -79.67316944 276.9573289 -81.96533203 272.38818359 C-82.29275391 271.73591797 -82.62017578 271.08365234 -82.95751953 270.41162109 C-85.56848997 264.76695167 -86.15325732 259.04725869 -86.34033203 252.88818359 C-86.38931641 251.80537109 -86.43830078 250.72255859 -86.48876953 249.60693359 C-85.74934426 238.25741205 -79.17409244 227.53796591 -73.52783203 218.01318359 C-72.81591111 216.79261263 -72.10507623 215.57140764 -71.39526367 214.34960938 C-69.60324694 211.27063804 -67.79840155 208.19941778 -65.98986816 205.13012695 C-64.42897894 202.47626193 -62.88077439 199.81505906 -61.33251953 197.15380859 C-59.04701048 193.22646843 -56.75628351 189.30225535 -54.46142578 185.38037109 C-50.77035261 179.0644191 -47.11626519 172.72739877 -43.46533203 166.38818359 C-38.69323105 158.1058677 -33.90705638 149.83213691 -29.09033203 141.57568359 C-28.53168457 140.61791016 -27.97303711 139.66013672 -27.39746094 138.67333984 C-24.47915624 133.67571215 -21.55229441 128.68323475 -18.6144104 123.69709778 C-17.06730948 121.071161 -15.52194596 118.44420313 -13.97650146 115.81729126 C-12.86946063 113.93764118 -11.75949574 112.05974005 -10.64941406 110.18188477 C-2.42196518 96.53576161 -2.42196518 96.53576161 0.22753906 81.08496094 C0.25163345 79.20809097 0.25163345 79.20809097 0.2762146 77.29330444 C0.28769643 75.93691693 0.29830591 74.5805218 0.30810547 73.22412109 C0.31609098 72.19403868 0.31609098 72.19403868 0.32423782 71.14314651 C0.35086974 67.51520152 0.37028475 63.88728991 0.38476562 60.25927734 C0.39815364 57.25799411 0.42610708 54.25738297 0.46679688 51.25634766 C0.51600655 47.6259968 0.54086969 43.99625929 0.54799271 40.36558914 C0.55471504 38.98362131 0.56996299 37.60166774 0.59388351 36.21989059 C0.62539757 34.29103991 0.62258034 32.36172025 0.61816406 30.43261719 C0.62625092 29.33517181 0.63433777 28.23772644 0.64266968 27.10702515 C0.29846317 24.19084053 0.29846317 24.19084053 -2.30648804 22.61978149 C-3.18390656 22.21335419 -4.06132507 21.80692688 -4.96533203 21.38818359 C-10.19174674 18.46139135 -12.20480363 16.15880446 -13.96533203 10.38818359 C-14.46533203 6.63818359 -14.46533203 6.63818359 -13.96533203 3.38818359 C-9.65732958 -0.28145298 -5.36896564 -0.0389266 0 0 Z " fill="#0F1B2B" transform="translate(217.96533203125,353.61181640625)"/>
<path d="M0 0 C0.89323975 -0.00525696 1.78647949 -0.01051392 2.70678711 -0.01593018 C5.65219732 -0.02910853 8.597065 -0.0204012 11.54248047 -0.01025391 C13.59081119 -0.0122749 15.63914122 -0.01518656 17.68746948 -0.01895142 C21.97628645 -0.02337153 26.26491579 -0.01695233 30.55371094 -0.00292969 C36.05642647 0.01418353 41.55870373 0.00430541 47.06140327 -0.01364708 C51.28896401 -0.02447486 55.51642039 -0.02104356 59.74398422 -0.0132637 C61.77341641 -0.01126003 63.80285802 -0.0137268 65.83227921 -0.02070236 C68.66448425 -0.02830262 71.49597343 -0.01673363 74.328125 0 C75.16975189 -0.00607269 76.01137878 -0.01214539 76.87850952 -0.0184021 C82.6001003 0.04437561 82.6001003 0.04437561 84.7441082 1.74060631 C87.20552414 4.88294276 86.55086369 8.67943329 86.44482422 12.50146484 C86.03466797 15.38818359 86.03466797 15.38818359 83.97216797 18.45068359 C80.71365919 20.59991279 77.67300724 21.98882233 74.03466797 23.38818359 C72.17482317 25.24802839 72.81936248 28.33532099 72.76245117 30.82543945 C72.74624222 31.49892929 72.73003326 32.17241913 72.71333313 32.86631775 C72.57190846 39.143507 72.49465862 45.4221574 72.43441486 51.70059872 C72.39374904 55.90940896 72.33417715 60.11583953 72.2253418 64.32348633 C71.11014125 90.06889144 71.11014125 90.06889144 81.81942749 112.82675171 C83.46006773 114.93476904 84.78916583 117.1946764 86.14404297 119.49365234 C87.01960563 120.85732344 87.89973993 122.21807128 88.78466797 123.57568359 C94.53906743 132.54912829 100.08847889 141.63894455 105.61279297 150.75537109 C108.0395534 154.75881829 110.48485739 158.75030149 112.94091797 162.73583984 C117.08252902 169.45776396 121.18926657 176.20053197 125.28466797 182.95068359 C125.65050995 183.55358215 126.01635193 184.15648071 126.39328003 184.77764893 C161.9657299 243.41079954 161.9657299 243.41079954 158.57373047 265.37255859 C155.50118968 276.72288576 148.14606042 286.93870581 138.17529297 293.17724609 C126.42185088 299.35846046 115.41608963 300.83445832 102.3046875 300.77636719 C100.74781935 300.78044074 99.1909541 300.785787 97.63409424 300.79229736 C93.43558639 300.80588592 89.23730159 300.80070698 85.03879023 300.79116011 C80.62463984 300.78351664 76.21050741 300.7906223 71.7963562 300.7953186 C64.38405971 300.80076373 56.97185313 300.79361847 49.55957031 300.77929688 C41.01908624 300.76298482 32.47881723 300.76825337 23.9383384 300.78477609 C16.57744621 300.79844093 9.21661833 300.80028594 1.85571754 300.79246008 C-2.52812793 300.78780937 -6.91187272 300.78708613 -11.29571152 300.79706955 C-15.42121821 300.80580965 -19.54645095 300.79959045 -23.67192841 300.78238678 C-25.17582624 300.77845867 -26.67974759 300.77949194 -28.18363571 300.78617477 C-46.10743489 300.85840821 -60.4497869 297.34748329 -73.73876953 284.81787109 C-77.20401331 281.03649982 -79.67316944 276.9573289 -81.96533203 272.38818359 C-82.29275391 271.73591797 -82.62017578 271.08365234 -82.95751953 270.41162109 C-85.56848997 264.76695167 -86.15325732 259.04725869 -86.34033203 252.88818359 C-86.38931641 251.80537109 -86.43830078 250.72255859 -86.48876953 249.60693359 C-85.74934426 238.25741205 -79.17409244 227.53796591 -73.52783203 218.01318359 C-72.81591111 216.79261263 -72.10507623 215.57140764 -71.39526367 214.34960938 C-69.60324694 211.27063804 -67.79840155 208.19941778 -65.98986816 205.13012695 C-64.42897894 202.47626193 -62.88077439 199.81505906 -61.33251953 197.15380859 C-59.04701048 193.22646843 -56.75628351 189.30225535 -54.46142578 185.38037109 C-50.77035261 179.0644191 -47.11626519 172.72739877 -43.46533203 166.38818359 C-38.69323105 158.1058677 -33.90705638 149.83213691 -29.09033203 141.57568359 C-28.53168457 140.61791016 -27.97303711 139.66013672 -27.39746094 138.67333984 C-24.47915624 133.67571215 -21.55229441 128.68323475 -18.6144104 123.69709778 C-17.06730948 121.071161 -15.52194596 118.44420313 -13.97650146 115.81729126 C-12.86946063 113.93764118 -11.75949574 112.05974005 -10.64941406 110.18188477 C-2.42196518 96.53576161 -2.42196518 96.53576161 0.22753906 81.08496094 C0.25163345 79.20809097 0.25163345 79.20809097 0.2762146 77.29330444 C0.28769643 75.93691693 0.29830591 74.5805218 0.30810547 73.22412109 C0.31609098 72.19403868 0.31609098 72.19403868 0.32423782 71.14314651 C0.35086974 67.51520152 0.37028475 63.88728991 0.38476562 60.25927734 C0.39815364 57.25799411 0.42610708 54.25738297 0.46679688 51.25634766 C0.51600655 47.6259968 0.54086969 43.99625929 0.54799271 40.36558914 C0.55471504 38.98362131 0.56996299 37.60166774 0.59388351 36.21989059 C0.62539757 34.29103991 0.62258034 32.36172025 0.61816406 30.43261719 C0.62625092 29.33517181 0.63433777 28.23772644 0.64266968 27.10702515 C0.29846317 24.19084053 0.29846317 24.19084053 -2.30648804 22.61978149 C-3.18390656 22.21335419 -4.06132507 21.80692688 -4.96533203 21.38818359 C-10.19174674 18.46139135 -12.20480363 16.15880446 -13.96533203 10.38818359 C-14.46533203 6.63818359 -14.46533203 6.63818359 -13.96533203 3.38818359 C-9.65732958 -0.28145298 -5.36896564 -0.0389266 0 0 Z M21.03466797 21.38818359 C20.9163829 23.24111775 20.86728334 25.0985035 20.84521484 26.95507812 C20.82849731 28.14787384 20.81177979 29.34066956 20.79455566 30.5696106 C20.78098022 31.87356781 20.76740479 33.17752502 20.75341797 34.52099609 C20.73536377 35.87369508 20.71676004 37.22638682 20.69763184 38.57907104 C20.63782309 42.89037961 20.58598005 47.20176687 20.53466797 51.51318359 C20.47498804 56.46507991 20.41191405 61.41690514 20.3427887 66.36867905 C20.3167541 68.33291269 20.29568478 70.29721019 20.27478027 72.26150513 C20.18835575 78.65603444 20.00952704 85.04033857 19.68115234 91.42675781 C19.62133179 92.60970428 19.56151123 93.79265076 19.49987793 95.01144409 C18.6025037 101.52505998 15.35800194 106.82462153 12.03466797 112.38818359 C11.5206543 113.25668945 11.00664062 114.12519531 10.47705078 115.02001953 C7.37163758 120.25344497 4.23226256 125.46555356 1.07763672 130.66943359 C-8.03827277 145.75056224 -16.67838342 161.11849795 -25.41186523 176.4230957 C-34.37433804 192.12196048 -43.42503711 207.77030806 -52.52783203 223.38818359 C-53.36677002 224.82834839 -53.36677002 224.82834839 -54.22265625 226.29760742 C-54.75777832 227.21437256 -55.29290039 228.1311377 -55.84423828 229.07568359 C-56.35841309 229.96255859 -56.87258789 230.84943359 -57.40234375 231.76318359 C-58.45715825 233.53471835 -59.54861368 235.28487279 -60.67285156 237.01318359 C-65.78198193 244.95769209 -66.34293036 251.09411267 -64.96533203 260.38818359 C-62.22768178 268.54807911 -56.30757737 273.29235101 -48.96533203 277.38818359 C-44.97037092 279.2938631 -41.77604511 279.6428716 -37.36386108 279.65560913 C-36.71398181 279.66014024 -36.06410253 279.66467136 -35.39452994 279.66933978 C-33.22453549 279.68196412 -31.05479266 279.68036469 -28.88476562 279.67871094 C-27.32553791 279.68469764 -25.76631315 279.69150351 -24.20709229 279.69906616 C-19.97536391 279.71672421 -15.74371644 279.72142161 -11.51195478 279.72269773 C-8.86467749 279.72412061 -6.21742067 279.7283929 -3.57014847 279.73369217 C5.67557833 279.75219552 14.92124749 279.76036286 24.16699219 279.75878906 C32.76763445 279.75758928 41.36802509 279.77865865 49.96860373 279.81027639 C57.36500555 279.83649227 64.7613255 279.84715406 72.15777338 279.84587824 C76.56964422 279.84536994 80.98129167 279.85097917 85.393116 279.87223434 C89.54812325 279.89170514 93.70269618 279.89168136 97.85771942 279.87720108 C99.37536382 279.87512242 100.89303602 279.87975718 102.41063309 279.891922 C113.29119789 279.97342767 123.01606455 279.25927084 131.47216797 271.76318359 C136.40094826 266.29800627 139.04746032 260.0861129 139.78466797 252.76318359 C138.98086561 238.59888249 126.92486609 224.4299861 119.74349976 212.73497009 C114.88610828 204.82248809 110.15032149 196.84525968 105.47216797 188.82568359 C104.05829373 186.40369865 102.6441901 183.98184771 101.22998047 181.56005859 C100.70827271 180.66636063 100.70827271 180.66636063 100.17602539 179.75460815 C96.43026062 173.34347887 92.63926493 166.9594982 88.84716797 160.57568359 C82.08216038 149.17706381 75.36336309 137.75263689 68.71484375 126.28564453 C67.57154925 124.31403465 66.42662971 122.3433664 65.28027344 120.37353516 C63.58893181 117.46478631 61.9045235 114.55213695 60.22216797 111.63818359 C59.71202148 110.76242676 59.201875 109.88666992 58.67626953 108.984375 C58.2105957 108.17403809 57.74492187 107.36370117 57.26513672 106.52880859 C56.85674561 105.82272461 56.44835449 105.11664063 56.02758789 104.38916016 C53.86882091 100.03871654 53.915045 96.02640072 53.92456055 91.20458984 C53.9240181 89.72143553 53.92343112 88.23828123 53.92280579 86.75512695 C53.92423395 85.97233368 53.92566212 85.18954041 53.92713356 84.38302612 C53.93065963 80.23103389 53.90485528 76.07917615 53.88427734 71.92724609 C53.85991936 66.64685678 53.84427682 61.36686353 53.85961914 56.08642578 C53.87126654 51.81504216 53.85392857 47.54463758 53.81717491 43.27340698 C53.80855174 41.64673975 53.81065182 40.01997898 53.82367897 38.39334106 C53.84054265 36.11839267 53.82041902 33.84654367 53.79174805 31.57177734 C53.79032303 30.27812256 53.78889801 28.98446777 53.78742981 27.65161133 C53.32055121 24.13985799 53.32055121 24.13985799 50.17236328 21.96858215 C46.7844553 20.26215614 44.7775961 19.90805671 41.01513672 19.96240234 C39.35901367 19.9749707 39.35901367 19.9749707 37.66943359 19.98779297 C36.53183594 20.01679688 35.39423828 20.04580078 34.22216797 20.07568359 C33.06523437 20.08535156 31.90830078 20.09501953 30.71630859 20.10498047 C25.51451664 19.68791117 25.51451664 19.68791117 21.03466797 21.38818359 Z " fill="#55A0D6" transform="translate(217.96533203125,353.61181640625)"/>
<path d="M0 0 C0.89323975 -0.00525696 1.78647949 -0.01051392 2.70678711 -0.01593018 C5.65219732 -0.02910853 8.597065 -0.0204012 11.54248047 -0.01025391 C13.59081119 -0.0122749 15.63914122 -0.01518656 17.68746948 -0.01895142 C21.97628645 -0.02337153 26.26491579 -0.01695233 30.55371094 -0.00292969 C36.05642647 0.01418353 41.55870373 0.00430541 47.06140327 -0.01364708 C51.28896401 -0.02447486 55.51642039 -0.02104356 59.74398422 -0.0132637 C61.77341641 -0.01126003 63.80285802 -0.0137268 65.83227921 -0.02070236 C68.66448425 -0.02830262 71.49597343 -0.01673363 74.328125 0 C75.16975189 -0.00607269 76.01137878 -0.01214539 76.87850952 -0.0184021 C82.6001003 0.04437561 82.6001003 0.04437561 84.7441082 1.74060631 C87.20552414 4.88294276 86.55086369 8.67943329 86.44482422 12.50146484 C86.03466797 15.38818359 86.03466797 15.38818359 83.97216797 18.45068359 C80.71365919 20.59991279 77.67300724 21.98882233 74.03466797 23.38818359 C72.17482317 25.24802839 72.81936248 28.33532099 72.76245117 30.82543945 C72.74624222 31.49892929 72.73003326 32.17241913 72.71333313 32.86631775 C72.57190846 39.143507 72.49465862 45.4221574 72.43441486 51.70059872 C72.39374904 55.90940896 72.33417715 60.11583953 72.2253418 64.32348633 C71.11014125 90.06889144 71.11014125 90.06889144 81.81942749 112.82675171 C83.46006773 114.93476904 84.78916583 117.1946764 86.14404297 119.49365234 C87.01960563 120.85732344 87.89973993 122.21807128 88.78466797 123.57568359 C94.53906743 132.54912829 100.08847889 141.63894455 105.61279297 150.75537109 C108.0395534 154.75881829 110.48485739 158.75030149 112.94091797 162.73583984 C117.08252902 169.45776396 121.18926657 176.20053197 125.28466797 182.95068359 C125.65050995 183.55358215 126.01635193 184.15648071 126.39328003 184.77764893 C161.9657299 243.41079954 161.9657299 243.41079954 158.57373047 265.37255859 C155.48009546 276.80081027 148.08615749 286.91283824 138.10498047 293.24755859 C130.92427872 297.0845748 125.14797274 298.38818359 117.03466797 298.38818359 C117.36466797 296.73818359 117.69466797 295.08818359 118.03466797 293.38818359 C117.37466797 293.38818359 116.71466797 293.38818359 116.03466797 293.38818359 C116.36466797 290.74818359 116.69466797 288.10818359 117.03466797 285.38818359 C116.37466797 285.38818359 115.71466797 285.38818359 115.03466797 285.38818359 C115.36466797 284.39818359 115.69466797 283.40818359 116.03466797 282.38818359 C116.03466797 283.04818359 116.03466797 283.70818359 116.03466797 284.38818359 C116.69466797 284.38818359 117.35466797 284.38818359 118.03466797 284.38818359 C118.30279297 283.74880859 118.57091797 283.10943359 118.84716797 282.45068359 C120.03466797 280.38818359 120.03466797 280.38818359 123.03466797 279.38818359 C123.03466797 280.04818359 123.03466797 280.70818359 123.03466797 281.38818359 C123.48841797 280.89318359 123.94216797 280.39818359 124.40966797 279.88818359 C126.03466797 278.38818359 126.03466797 278.38818359 128.03466797 278.38818359 C128.03466797 277.72818359 128.03466797 277.06818359 128.03466797 276.38818359 C128.69466797 276.38818359 129.35466797 276.38818359 130.03466797 276.38818359 C130.03466797 275.72818359 130.03466797 275.06818359 130.03466797 274.38818359 C132.03448697 272.49549775 134.15530782 270.78932594 136.28466797 269.04443359 C136.86216797 268.49787109 137.43966797 267.95130859 138.03466797 267.38818359 C138.03466797 266.72818359 138.03466797 266.06818359 138.03466797 265.38818359 C139.32700404 264.01507652 140.65903942 262.67783535 142.03466797 261.38818359 C141.04466797 260.72818359 140.05466797 260.06818359 139.03466797 259.38818359 C138.80419922 257.13037109 138.80419922 257.13037109 138.84716797 254.26318359 C137.79515513 239.10706641 126.47447871 225.32471997 118.74336243 212.73469543 C113.88592761 204.82236025 109.15026928 196.84517018 104.47216797 188.82568359 C103.05829373 186.40369865 101.6441901 183.98184771 100.22998047 181.56005859 C99.70827271 180.66636063 99.70827271 180.66636063 99.17602539 179.75460815 C95.43026062 173.34347887 91.63926493 166.9594982 87.84716797 160.57568359 C81.08216038 149.17706381 74.36336309 137.75263689 67.71484375 126.28564453 C66.57154925 124.31403465 65.42662971 122.3433664 64.28027344 120.37353516 C62.58893181 117.46478631 60.9045235 114.55213695 59.22216797 111.63818359 C58.71202148 110.76242676 58.201875 109.88666992 57.67626953 108.984375 C57.2105957 108.17403809 56.74492187 107.36370117 56.26513672 106.52880859 C55.85674561 105.82272461 55.44835449 105.11664063 55.02758789 104.38916016 C52.86853166 100.03813364 52.91041422 96.01093679 52.90869141 91.1887207 C52.90682327 90.47119125 52.90495514 89.7536618 52.9030304 89.01438904 C52.89903505 87.46041662 52.89695235 85.90643837 52.8965683 84.35246086 C52.89314653 81.05046324 52.87178284 77.74866144 52.85133743 74.44673252 C52.81332127 68.30145624 52.78205946 62.15639374 52.78417969 56.01098633 C52.78496517 51.73319677 52.76168065 47.45613052 52.72229767 43.17852974 C52.71181636 41.54825654 52.71032932 39.91790009 52.71794891 38.28761101 C52.7275352 36.0103557 52.70646379 33.73530757 52.67822266 31.45825195 C52.67275421 29.51443886 52.67275421 29.51443886 52.66717529 27.53135681 C52.34914339 24.22803974 52.34914339 24.22803974 49.6733551 22.46759033 C46.60966055 21.21432597 44.38221569 21.04437517 41.07763672 21.09521484 C39.57366333 21.10645386 39.57366333 21.10645386 38.03930664 21.11791992 C36.149823 21.15888794 36.149823 21.15888794 34.22216797 21.20068359 C28.18935547 21.29349609 28.18935547 21.29349609 22.03466797 21.38818359 C21.70466797 33.92818359 21.37466797 46.46818359 21.03466797 59.38818359 C20.04466797 59.38818359 19.05466797 59.38818359 18.03466797 59.38818359 C18.03466797 56.08818359 18.03466797 52.78818359 18.03466797 49.38818359 C16.38466797 51.03818359 14.73466797 52.68818359 13.03466797 54.38818359 C12.37466797 53.39818359 11.71466797 52.40818359 11.03466797 51.38818359 C11.36466797 50.72818359 11.69466797 50.06818359 12.03466797 49.38818359 C11.37466797 50.04818359 10.71466797 50.70818359 10.03466797 51.38818359 C9.37466797 52.04818359 8.71466797 52.70818359 8.03466797 53.38818359 C7.04466797 53.38818359 6.05466797 53.38818359 5.03466797 53.38818359 C5.03466797 54.04818359 5.03466797 54.70818359 5.03466797 55.38818359 C4.37466797 55.38818359 3.71466797 55.38818359 3.03466797 55.38818359 C3.03466797 56.04818359 3.03466797 56.70818359 3.03466797 57.38818359 C3.69466797 57.71818359 4.35466797 58.04818359 5.03466797 58.38818359 C4.70466797 58.71818359 4.37466797 59.04818359 4.03466797 59.38818359 C3.99119998 61.38771117 3.99467597 63.38858347 4.03466797 65.38818359 C4.03466797 68.59213775 3.29131775 70.48218098 2.03466797 73.38818359 C2.69466797 73.71818359 3.35466797 74.04818359 4.03466797 74.38818359 C4.03466797 81.31818359 4.03466797 88.24818359 4.03466797 95.38818359 C3.04466797 95.38818359 2.05466797 95.38818359 1.03466797 95.38818359 C0.95216797 95.96568359 0.86966797 96.54318359 0.78466797 97.13818359 C0.03466797 99.38818359 0.03466797 99.38818359 -1.77783203 101.07568359 C-4.42836659 103.87767727 -5.54161766 106.67020945 -7.02392578 110.19287109 C-8.1258328 112.76246338 -9.3458008 115.10611686 -10.96533203 117.38818359 C-11.62533203 117.38818359 -12.28533203 117.38818359 -12.96533203 117.38818359 C-12.38901827 111.42510037 -8.76561382 106.82614728 -5.64697266 101.89013672 C-5.20675781 101.17148437 -4.76654297 100.45283203 -4.31298828 99.71240234 C-3.91088135 99.07391357 -3.50877441 98.4354248 -3.09448242 97.77758789 C0.67031398 89.81087169 0.37687731 81.56823695 0.40576172 72.93115234 C0.41474189 71.53729666 0.42386396 70.14344189 0.43312073 68.74958801 C0.44952237 65.84402126 0.4572963 62.93856866 0.46020508 60.03295898 C0.46562248 56.30905584 0.50347496 52.58622019 0.54894924 48.86262035 C0.57865067 45.99129771 0.58592687 43.12023652 0.58693123 40.24877357 C0.59113674 38.87519683 0.60358469 37.50161953 0.62444878 36.12819481 C0.65124976 34.21398474 0.64345232 32.29938427 0.6340332 30.38500977 C0.63910385 29.29661301 0.6441745 28.20821625 0.6493988 27.08683777 C0.29446893 24.18922745 0.29446893 24.18922745 -2.30747986 22.62275696 C-3.18457108 22.21534775 -4.06166229 21.80793854 -4.96533203 21.38818359 C-10.19174674 18.46139135 -12.20480363 16.15880446 -13.96533203 10.38818359 C-14.46533203 6.63818359 -14.46533203 6.63818359 -13.96533203 3.38818359 C-9.65732958 -0.28145298 -5.36896564 -0.0389266 0 0 Z " fill="#56A0D5" transform="translate(217.96533203125,353.61181640625)"/>
<path d="M0 0 C13.0036437 9.29493962 18.44697661 20.8181133 21.25 36.1875 C23.01932497 48.60888345 18.46456823 62.19809784 11.25 72.1875 C10.6725 73.074375 10.095 73.96125 9.5 74.875 C-0.55480513 85.20910527 -13.17228315 89.23320346 -27.3125 89.5 C-39.52967018 89.51268804 -49.31810616 86.019638 -58.75 78.1875 C-59.72066406 77.40246094 -59.72066406 77.40246094 -60.7109375 76.6015625 C-68.05484565 70.02732158 -73.12174243 59.45483621 -73.96899414 49.65429688 C-74.89527739 27.51632068 -74.89527739 27.51632068 -69.75 18.1875 C-69.32589844 17.33414062 -68.90179688 16.48078125 -68.46484375 15.6015625 C-62.40815973 4.36548574 -53.4557366 -1.28377459 -41.75 -5.8125 C-27.93708426 -9.89220364 -11.99704675 -7.44575447 0 0 Z " fill="#F9FAFB" transform="translate(472.75,410.8125)"/>
<path d="M0 0 C19.47 0 38.94 0 59 0 C60.32 2.64 61.64 5.28 63 8 C67.11088434 14.42325678 72.9335715 17.34664858 80 20 C84.27959488 20.65478829 88.3871917 20.54439299 92.703125 20.34765625 C95.08851397 20.31251987 97.47393297 20.27937521 99.859375 20.24804688 C103.56930708 20.16505118 107.27613306 20.0615142 110.984375 19.92163086 C131.31520438 19.2259755 131.31520438 19.2259755 135.90014648 22.2555542 C139.13862142 25.66823399 140.59731444 29.53124009 142 34 C142.38188477 34.72711182 142.76376953 35.45422363 143.15722656 36.20336914 C144.63041728 39.34392838 143.85821452 41.73878481 143 45 C139.77023635 49.15255326 136.99668016 50.62853151 132 52 C129.0451889 52.25726891 129.0451889 52.25726891 125.89001465 52.26742554 C124.68721359 52.27595551 123.48441254 52.28448547 122.24516296 52.29327393 C120.93900528 52.29236755 119.6328476 52.29146118 118.28710938 52.29052734 C116.88710676 52.29651661 115.48710744 52.30332308 114.08711243 52.31088257 C110.29584569 52.32850509 106.5046693 52.33323624 102.71336555 52.33451414 C100.34301444 52.33593794 97.97268614 52.34021178 95.6023407 52.34550858 C87.32846625 52.36399346 79.05465613 52.37218075 70.78076172 52.37060547 C63.07464601 52.36940311 55.36880995 52.39052767 47.66276503 52.4220928 C41.03923716 52.44825474 34.41580068 52.45897287 27.79222155 52.45769465 C23.83938278 52.45718517 19.88679291 52.46286083 15.93400574 52.48405075 C12.21727818 52.50343307 8.50103707 52.50355812 4.78429222 52.48901749 C2.77444983 52.48593428 0.76460739 52.50260412 -1.24516296 52.51989746 C-12.13520112 52.44394452 -12.13520112 52.44394452 -17 48 C-17.60489258 47.51120361 -18.20978516 47.02240723 -18.83300781 46.51879883 C-20.90681547 43.81981191 -20.6910824 41.31441391 -20.58789062 38.00927734 C-19.34784996 31.66179344 -15.58222058 26.26359383 -12.25 20.8125 C-11.51101121 19.56955199 -10.7740162 18.32541633 -10.0390625 17.08007812 C-8.67901576 14.78095603 -7.30625098 12.49165408 -5.92285156 10.20629883 C-3.89982273 6.83295733 -1.95154083 3.41519646 0 0 Z " fill="#4494D0" transform="translate(193,565)"/>
<path d="M0 0 C8.91 0 17.82 0 27 0 C28.07378906 2.76246094 29.14757812 5.52492188 30.25390625 8.37109375 C31.3193448 11.10863501 32.38535476 13.84595313 33.45141602 16.58325195 C34.18020061 18.45541647 34.9084106 20.3278048 35.63598633 22.20043945 C40.2944843 34.18907917 45.04963386 46.12871461 50 58 C50.34611328 57.02897339 50.34611328 57.02897339 50.69921875 56.03833008 C54.79760127 44.55617687 58.91638386 33.08334459 63.25 21.6875 C63.55421875 20.88481689 63.8584375 20.08213379 64.171875 19.25512695 C66.65185874 12.7738979 69.32750644 6.41398454 72 0 C80.91 0 89.82 0 99 0 C99.88682853 31.00732614 100.11569575 61.98068514 100 93 C93.73 93 87.46 93 81 93 C80.67 71.55 80.34 50.1 80 28 C77.73125 33.89875 75.4625 39.7975 73.125 45.875 C67.08333333 61.58333333 61.04166667 77.29166667 55 93 C51.7 93 48.4 93 45 93 C43.06485635 88.10104141 41.13006993 83.20194191 39.19555664 78.30273438 C38.54330117 76.6510068 37.89096295 74.99931191 37.23852539 73.34765625 C31.13898211 57.90625597 25.07074476 42.45280484 19 27 C19 48.78 19 70.56 19 93 C12.73 93 6.46 93 0 93 C0 62.31 0 31.62 0 0 Z " fill="#F8FAFB" transform="translate(508,405)"/>
<path d="M0 0 C8.25 0 16.5 0 25 0 C28.12540615 7.81351538 31.19420579 15.63612656 34.1875 23.5 C34.42643982 24.12772308 34.66537964 24.75544617 34.91156006 25.40219116 C38.69822947 35.36977845 42.26904868 45.39710557 45.70776367 55.49072266 C48.68887608 64.2072288 51.88298039 72.83338985 55.17041016 81.4387207 C55.5266748 82.37417725 55.88293945 83.30963379 56.25 84.2734375 C56.56453125 85.09247559 56.8790625 85.91151367 57.203125 86.75537109 C58 89 58 89 59 93 C52.07 93 45.14 93 38 93 C37.175 90.56625 36.35 88.1325 35.5 85.625 C35.10844727 84.47765381 35.10844727 84.47765381 34.70898438 83.30712891 C33 78.22222222 33 78.22222222 33 76 C19.47 76 5.94 76 -8 76 C-8.33 77.98 -8.66 79.96 -9 82 C-10.20918245 85.7198143 -11.61606324 89.33926405 -13 93 C-19.93 93 -26.86 93 -34 93 C-32.03094848 86.43649493 -30.00546174 80.06169511 -27.59375 73.671875 C-27.27239075 72.8121257 -26.95103149 71.9523764 -26.61993408 71.0665741 C-25.58279813 68.29330921 -24.54139069 65.52166962 -23.5 62.75 C-22.05586563 58.89245994 -20.61390281 55.03410919 -19.171875 51.17578125 C-18.81474426 50.22115494 -18.45761353 49.26652863 -18.08966064 48.28297424 C-14.49298277 38.66180421 -10.96008851 29.01773599 -7.45117188 19.36425781 C-7.04962891 18.26307617 -6.64808594 17.16189453 -6.234375 16.02734375 C-5.89631836 15.09656006 -5.55826172 14.16577637 -5.20996094 13.20678711 C-3.53932088 8.77905161 -1.75757984 4.39394959 0 0 Z " fill="#F9FBFC" transform="translate(836,405)"/>
<path d="M0 0 C5.21539604 3.4561729 10.32283768 7.50322075 14.2421875 12.421875 C14.2421875 13.081875 14.2421875 13.741875 14.2421875 14.421875 C11.6195643 15.76006998 8.99432151 17.0925901 6.3671875 18.421875 C5.62082031 18.8034375 4.87445312 19.185 4.10546875 19.578125 C3.39003906 19.9390625 2.67460938 20.3 1.9375 20.671875 C0.9477417 21.17460937 0.9477417 21.17460937 -0.06201172 21.6875 C-1.7578125 22.421875 -1.7578125 22.421875 -3.7578125 22.421875 C-4.4590625 21.679375 -5.1603125 20.936875 -5.8828125 20.171875 C-12.52465086 13.81881222 -20.06671976 12.0145965 -29.07421875 12.1484375 C-37.38990321 12.99574159 -44.31876523 17.19328861 -49.7578125 23.421875 C-55.64824346 31.02618841 -54.86131193 42.3221222 -53.7578125 51.421875 C-51.74986183 59.26060548 -46.3993169 64.97239422 -39.7578125 69.421875 C-32.63290816 72.43739468 -23.49862255 72.96718329 -16.109375 70.55859375 C-13.76870733 69.40316158 -13.76870733 69.40316158 -10.7578125 67.421875 C-9.7678125 67.091875 -8.7778125 66.761875 -7.7578125 66.421875 C-6.63996137 64.30402387 -6.63996137 64.30402387 -5.7578125 61.421875 C-4.7678125 58.451875 -3.7778125 55.481875 -2.7578125 52.421875 C-11.0078125 52.421875 -19.2578125 52.421875 -27.7578125 52.421875 C-27.7578125 47.141875 -27.7578125 41.861875 -27.7578125 36.421875 C-12.9078125 36.421875 1.9421875 36.421875 17.2421875 36.421875 C17.2421875 51.90355152 16.84159795 65.78460467 6.203125 77.70703125 C-4.31638682 87.65038606 -16.16651456 90.96473693 -30.3984375 90.6640625 C-43.11140805 89.74754602 -54.32079895 85.49907566 -63.1953125 76.109375 C-73.13430424 63.88152832 -76.19845884 48.94156513 -74.7578125 33.421875 C-72.59789154 22.05657659 -67.28692364 11.43990449 -58.20703125 4.0546875 C-41.17630166 -7.29913222 -18.38218818 -10.51898587 0 0 Z " fill="#F8FAFB" transform="translate(777.7578125,409.578125)"/>
<path d="M0 0 C8.36594721 5.73163177 13.3174474 14.99346547 15.609375 24.71484375 C16.92105373 35.56965443 14.84791211 45.65316889 8.421875 54.58984375 C1.85864026 62.31458911 -6.59312205 67.0617029 -16.68359375 68.03125 C-27.46510121 68.39572844 -35.48571096 66.53574379 -43.765625 59.46484375 C-51.59354957 51.88542472 -55.55535029 44.19524513 -55.77050781 33.15527344 C-55.76889648 32.39118164 -55.76728516 31.62708984 -55.765625 30.83984375 C-55.76401367 30.04481445 -55.76240234 29.24978516 -55.76074219 28.43066406 C-55.63510488 22.42717148 -54.68837476 17.82177567 -51.390625 12.71484375 C-50.813125 11.68359375 -50.235625 10.65234375 -49.640625 9.58984375 C-37.14495518 -6.37684546 -17.80207234 -9.5700683 0 0 Z " fill="#F7F9FA" transform="translate(569.390625,538.28515625)"/>
<path d="M0 0 C21.78 0 43.56 0 66 0 C66 5.94 66 11.88 66 18 C50.16 18 34.32 18 18 18 C18 24.6 18 31.2 18 38 C32.52 38 47.04 38 62 38 C62 43.61 62 49.22 62 55 C47.81 55 33.62 55 19 55 C19 61.93 19 68.86 19 76 C34.18 76 49.36 76 65 76 C65 81.61 65 87.22 65 93 C43.55 93 22.1 93 0 93 C0 62.31 0 31.62 0 0 Z " fill="#FAFCFC" transform="translate(626,405)"/>
<path d="M0 0 C0.89323975 -0.00525696 1.78647949 -0.01051392 2.70678711 -0.01593018 C5.65219732 -0.02910853 8.597065 -0.0204012 11.54248047 -0.01025391 C13.59081119 -0.0122749 15.63914122 -0.01518656 17.68746948 -0.01895142 C21.97628645 -0.02337153 26.26491579 -0.01695233 30.55371094 -0.00292969 C36.05642647 0.01418353 41.55870373 0.00430541 47.06140327 -0.01364708 C51.28896401 -0.02447486 55.51642039 -0.02104356 59.74398422 -0.0132637 C61.77341641 -0.01126003 63.80285802 -0.0137268 65.83227921 -0.02070236 C68.66448425 -0.02830262 71.49597343 -0.01673363 74.328125 0 C75.16975189 -0.00607269 76.01137878 -0.01214539 76.87850952 -0.0184021 C82.6001003 0.04437561 82.6001003 0.04437561 84.7441082 1.74060631 C87.20552414 4.88294276 86.55086369 8.67943329 86.44482422 12.50146484 C86.03466797 15.38818359 86.03466797 15.38818359 83.97216797 18.45068359 C80.71365919 20.59991279 77.67300724 21.98882233 74.03466797 23.38818359 C72.36019143 25.06266013 72.87553326 27.12019483 72.84521484 29.42016602 C72.82849731 30.49606491 72.81177979 31.57196381 72.79455566 32.6804657 C72.78098022 33.85631729 72.76740479 35.03216888 72.75341797 36.24365234 C72.73500854 37.45201248 72.71659912 38.66037262 72.69763184 39.90534973 C72.63867138 43.79540963 72.58605342 47.68551674 72.53466797 51.57568359 C72.48298335 55.41942546 72.42976078 59.26311455 72.3717041 63.10676575 C72.33559962 65.50098844 72.30305606 67.89526861 72.27478027 70.28959656 C72.15412112 78.35068222 71.68390309 86.35285549 71.03466797 94.38818359 C70.70466797 94.38818359 70.37466797 94.38818359 70.03466797 94.38818359 C69.04466797 85.47818359 69.04466797 85.47818359 68.03466797 76.38818359 C67.37466797 76.38818359 66.71466797 76.38818359 66.03466797 76.38818359 C67.02466797 74.40818359 67.02466797 74.40818359 68.03466797 72.38818359 C66.05466797 71.72818359 64.07466797 71.06818359 62.03466797 70.38818359 C62.03466797 71.04818359 62.03466797 71.70818359 62.03466797 72.38818359 C58.15966797 71.51318359 58.15966797 71.51318359 57.03466797 70.38818359 C55.60070046 73.25611861 56.4844246 75.27013782 57.03466797 78.38818359 C57.01404297 79.29568359 56.99341797 80.20318359 56.97216797 81.13818359 C56.78249017 83.59413903 56.78249017 83.59413903 59.03466797 85.38818359 C58.04466797 85.88318359 58.04466797 85.88318359 57.03466797 86.38818359 C55.81519837 91.42512323 55.87145491 96.34759369 57.03466797 101.38818359 C59.01466797 101.88318359 59.01466797 101.88318359 61.03466797 102.38818359 C60.70466797 105.02818359 60.37466797 107.66818359 60.03466797 110.38818359 C61.02466797 110.38818359 62.01466797 110.38818359 63.03466797 110.38818359 C63.28216797 111.41943359 63.52966797 112.45068359 63.78466797 113.51318359 C64.60443714 116.46913957 65.43116206 117.97726053 67.22216797 120.63818359 C67.82029297 121.54568359 68.41841797 122.45318359 69.03466797 123.38818359 C68.53966797 124.87318359 68.53966797 124.87318359 68.03466797 126.38818359 C66.45058435 123.70112518 64.86754097 121.0134553 63.28466797 118.32568359 C62.84123047 117.57351563 62.39779297 116.82134766 61.94091797 116.04638672 C61.05802556 114.546768 60.1771529 113.04595827 59.29833984 111.54394531 C58.48810661 110.16172749 57.672193 108.78281457 56.84912109 107.40820312 C53.45934954 101.66919116 52.911069 97.84369214 52.90869141 91.1887207 C52.90682327 90.47119125 52.90495514 89.7536618 52.9030304 89.01438904 C52.89903505 87.46041662 52.89695235 85.90643837 52.8965683 84.35246086 C52.89314653 81.05046324 52.87178284 77.74866144 52.85133743 74.44673252 C52.81332127 68.30145624 52.78205946 62.15639374 52.78417969 56.01098633 C52.78496517 51.73319677 52.76168065 47.45613052 52.72229767 43.17852974 C52.71181636 41.54825654 52.71032932 39.91790009 52.71794891 38.28761101 C52.7275352 36.0103557 52.70646379 33.73530757 52.67822266 31.45825195 C52.67275421 29.51443886 52.67275421 29.51443886 52.66717529 27.53135681 C52.34914339 24.22803974 52.34914339 24.22803974 49.6733551 22.46759033 C46.60966055 21.21432597 44.38221569 21.04437517 41.07763672 21.09521484 C39.57366333 21.10645386 39.57366333 21.10645386 38.03930664 21.11791992 C36.149823 21.15888794 36.149823 21.15888794 34.22216797 21.20068359 C28.18935547 21.29349609 28.18935547 21.29349609 22.03466797 21.38818359 C21.70466797 33.92818359 21.37466797 46.46818359 21.03466797 59.38818359 C20.04466797 59.38818359 19.05466797 59.38818359 18.03466797 59.38818359 C18.03466797 56.08818359 18.03466797 52.78818359 18.03466797 49.38818359 C16.38466797 51.03818359 14.73466797 52.68818359 13.03466797 54.38818359 C12.37466797 53.39818359 11.71466797 52.40818359 11.03466797 51.38818359 C11.36466797 50.72818359 11.69466797 50.06818359 12.03466797 49.38818359 C11.37466797 50.04818359 10.71466797 50.70818359 10.03466797 51.38818359 C9.37466797 52.04818359 8.71466797 52.70818359 8.03466797 53.38818359 C7.04466797 53.38818359 6.05466797 53.38818359 5.03466797 53.38818359 C5.03466797 54.04818359 5.03466797 54.70818359 5.03466797 55.38818359 C4.37466797 55.38818359 3.71466797 55.38818359 3.03466797 55.38818359 C3.03466797 56.04818359 3.03466797 56.70818359 3.03466797 57.38818359 C3.69466797 57.71818359 4.35466797 58.04818359 5.03466797 58.38818359 C4.70466797 58.71818359 4.37466797 59.04818359 4.03466797 59.38818359 C3.99119998 61.38771117 3.99467597 63.38858347 4.03466797 65.38818359 C4.03466797 68.59213775 3.29131775 70.48218098 2.03466797 73.38818359 C2.69466797 73.71818359 3.35466797 74.04818359 4.03466797 74.38818359 C4.03466797 81.31818359 4.03466797 88.24818359 4.03466797 95.38818359 C3.04466797 95.38818359 2.05466797 95.38818359 1.03466797 95.38818359 C0.95216797 95.96568359 0.86966797 96.54318359 0.78466797 97.13818359 C0.03466797 99.38818359 0.03466797 99.38818359 -1.77783203 101.07568359 C-4.42836659 103.87767727 -5.54161766 106.67020945 -7.02392578 110.19287109 C-8.1258328 112.76246338 -9.3458008 115.10611686 -10.96533203 117.38818359 C-11.62533203 117.38818359 -12.28533203 117.38818359 -12.96533203 117.38818359 C-12.38901827 111.42510037 -8.76561382 106.82614728 -5.64697266 101.89013672 C-5.20675781 101.17148437 -4.76654297 100.45283203 -4.31298828 99.71240234 C-3.91088135 99.07391357 -3.50877441 98.4354248 -3.09448242 97.77758789 C0.67031398 89.81087169 0.37687731 81.56823695 0.40576172 72.93115234 C0.41474189 71.53729666 0.42386396 70.14344189 0.43312073 68.74958801 C0.44952237 65.84402126 0.4572963 62.93856866 0.46020508 60.03295898 C0.46562248 56.30905584 0.50347496 52.58622019 0.54894924 48.86262035 C0.57865067 45.99129771 0.58592687 43.12023652 0.58693123 40.24877357 C0.59113674 38.87519683 0.60358469 37.50161953 0.62444878 36.12819481 C0.65124976 34.21398474 0.64345232 32.29938427 0.6340332 30.38500977 C0.63910385 29.29661301 0.6441745 28.20821625 0.6493988 27.08683777 C0.29446893 24.18922745 0.29446893 24.18922745 -2.30747986 22.62275696 C-3.18457108 22.21534775 -4.06166229 21.80793854 -4.96533203 21.38818359 C-10.19174674 18.46139135 -12.20480363 16.15880446 -13.96533203 10.38818359 C-14.46533203 6.63818359 -14.46533203 6.63818359 -13.96533203 3.38818359 C-9.65732958 -0.28145298 -5.36896564 -0.0389266 0 0 Z M65.03466797 76.38818359 C65.69466797 77.04818359 66.35466797 77.70818359 67.03466797 78.38818359 C66.04466797 78.88318359 66.04466797 78.88318359 65.03466797 79.38818359 C65.03466797 78.39818359 65.03466797 77.40818359 65.03466797 76.38818359 Z " fill="#84C2E5" transform="translate(217.96533203125,353.61181640625)"/>
<path d="M0 0 C39.07142857 0 39.07142857 0 46.875 4.75 C50.97047951 9.08639007 52.17165199 13.18247854 52.375 19 C52.16758437 25.499023 49.96041192 29.87476104 46 35 C46.49371094 35.54269531 46.98742187 36.08539062 47.49609375 36.64453125 C48.13675781 37.35996094 48.77742188 38.07539062 49.4375 38.8125 C50.07558594 39.52019531 50.71367187 40.22789062 51.37109375 40.95703125 C54.8846782 45.36375707 54.56590671 50.62787152 54 56 C52.23930653 61.815319 49.10832389 65.65994207 44 69 C38.31204644 70.74051379 33.26489507 71.27758662 27.34375 71.1953125 C26.64411133 71.19329834 25.94447266 71.19128418 25.22363281 71.18920898 C22.64902035 71.17886805 20.07450248 71.15094709 17.5 71.125 C11.725 71.08375 5.95 71.0425 0 71 C0 47.57 0 24.14 0 0 Z " fill="#F8FAFB" transform="translate(415,534)"/>
<path d="M0 0 C5.61 0 11.22 0 17 0 C22.145354 9.99386065 26.92409726 20.10912225 31.5 30.375 C31.9092572 31.28833603 31.9092572 31.28833603 32.32678223 32.22012329 C33.1075708 33.96514403 33.88203916 35.71298849 34.65625 37.4609375 C35.10806641 38.47978027 35.55988281 39.49862305 36.02539062 40.54833984 C37 43 37 43 37 45 C37.66 45 38.32 45 39 45 C39.13051758 43.78920776 39.13051758 43.78920776 39.26367188 42.55395508 C40.18898936 38.08782557 41.89509954 34.2721167 43.78125 30.13671875 C44.15479614 29.3041304 44.52834229 28.47154205 44.91320801 27.61372375 C45.70008347 25.86331621 46.49031067 24.11441198 47.28369141 22.36694336 C48.50244431 19.68211536 49.71105835 16.99290383 50.91796875 14.30273438 C51.68431308 12.6012999 52.45122035 10.90011884 53.21875 9.19921875 C53.76408386 7.98838875 53.76408386 7.98838875 54.32043457 6.75309753 C56.8827385 1.1172615 56.8827385 1.1172615 58 0 C63.61 0 69.22 0 75 0 C75 23.43 75 46.86 75 71 C71.04 71 67.08 71 63 71 C62.67 54.17 62.34 37.34 62 20 C59.48375 25.65125 56.9675 31.3025 54.375 37.125 C53.59431152 38.87699707 52.81362305 40.62899414 52.00927734 42.43408203 C51.52522934 43.52255936 51.52522934 43.52255936 51.03140259 44.63302612 C50.36805408 46.12379918 49.70283157 47.6137391 49.03622437 49.10305786 C47.38727837 52.80215036 45.77840967 56.50636657 44.27832031 60.26855469 C44.01395172 60.92177704 43.74958313 61.57499939 43.47720337 62.24801636 C42.77562524 63.99501636 42.09148809 65.74899226 41.40869141 67.50341797 C40 70 40 70 37.91195679 70.65603638 C37.28101105 70.76954437 36.65006531 70.88305237 36 71 C33.34805171 65.14717569 30.69720965 59.29385127 28.04711914 53.44018555 C27.14632946 51.45081362 26.24529094 49.46155434 25.34399414 47.47241211 C24.04507324 44.60560545 22.74706147 41.73838865 21.44921875 38.87109375 C21.0491008 37.98852402 20.64898285 37.10595428 20.23674011 36.19664001 C19.85657242 35.35629715 19.47640472 34.51595428 19.0847168 33.65014648 C18.58841011 32.55427467 18.58841011 32.55427467 18.08207703 31.43626404 C16.69095035 28.30418395 15.35000914 25.15002133 14 22 C13.67 38.17 13.34 54.34 13 71 C8.71 71 4.42 71 0 71 C0 47.57 0 24.14 0 0 Z " fill="#F6F9FA" transform="translate(812,534)"/>
<path d="M0 0 C0.67546875 0.36738281 1.3509375 0.73476563 2.046875 1.11328125 C8.44848556 5.19250301 11.93560376 10.75954456 14 18 C14.45184907 21.40153668 14.59205485 24.75803698 14.625 28.1875 C14.63595703 29.01846191 14.64691406 29.84942383 14.65820312 30.70556641 C14.46400931 39.14797528 11.40547325 46.25522527 5.71484375 52.49609375 C-0.7709457 58.18408678 -8.21064786 59.35036284 -16.56640625 59.28515625 C-23.43456626 58.71476298 -30.21256831 56.06099922 -35 51 C-41.62425656 40.86992344 -43.32079267 30.91195061 -42 19 C-39.59664988 8.89475114 -34.48072593 3.39805007 -25.875 -1.9375 C-17.93516941 -4.87614994 -7.35469587 -4.17299048 0 0 Z " fill="#0F1B2B" transform="translate(460,424)"/>
<path d="M0 0 C4.29 0 8.58 0 13 0 C13 9.57 13 19.14 13 29 C23.89 29 34.78 29 46 29 C46 19.43 46 9.86 46 0 C49.96 0 53.92 0 58 0 C58 23.43 58 46.86 58 71 C54.04 71 50.08 71 46 71 C46 60.77 46 50.54 46 40 C35.11 40 24.22 40 13 40 C13 50.23 13 60.46 13 71 C8.71 71 4.42 71 0 71 C0 47.57 0 24.14 0 0 Z " fill="#F7F9FA" transform="translate(673,534)"/>
<path d="M0 0 C0.33 0.66 0.66 1.32 1 2 C3.01669827 3.13350534 3.01669827 3.13350534 5 4 C3.625 6 3.625 6 2 8 C1.34 8 0.68 8 0 8 C0.33 8.99 0.66 9.98 1 11 C0.21625 11.433125 -0.5675 11.86625 -1.375 12.3125 C-4.21698375 13.89220247 -4.21698375 13.89220247 -6 17 C-6.66 17 -7.32 17 -8 17 C-8 17.66 -8 18.32 -8 19 C-8.66 19 -9.32 19 -10 19 C-10 19.66 -10 20.32 -10 21 C-10.66 21.33 -11.32 21.66 -12 22 C-11.67 22.66 -11.34 23.32 -11 24 C-11.7425 23.7525 -12.485 23.505 -13.25 23.25 C-16.13258252 22.661178 -16.13258252 22.661178 -18.25 24.875 C-18.8275 25.57625 -19.405 26.2775 -20 27 C-20.33 27.33 -20.66 27.66 -21 28 C-20.67 28.99 -20.34 29.98 -20 31 C-20.9375 33.6875 -20.9375 33.6875 -22 36 C-21.34 36 -20.68 36 -20 36 C-20 37.32 -20 38.64 -20 40 C-18.35 40.33 -16.7 40.66 -15 41 C-15 41.33 -15 41.66 -15 42 C-18.95134355 42.93431479 -22.61967704 43.12343555 -26.67549133 43.12025452 C-27.33313183 43.12110894 -27.99077234 43.12196337 -28.66834134 43.12284368 C-30.86396458 43.12448603 -33.0595108 43.11899757 -35.25512695 43.11352539 C-36.83219908 43.11324322 -38.40927133 43.11340183 -39.98634338 43.1139679 C-44.26278194 43.11425472 -48.53919244 43.10837652 -52.81562448 43.10139394 C-57.286602 43.09514131 -61.75758018 43.09455509 -66.2285614 43.09336853 C-74.69281728 43.09026085 -83.15706023 43.08205504 -91.62131041 43.07201904 C-101.25848428 43.06084043 -110.89565877 43.05534304 -120.53283751 43.05032361 C-140.35523222 43.03987197 -160.17761529 43.02228341 -180 43 C-180 42.67 -180 42.34 -180 42 C-178.96096527 41.98786972 -178.96096527 41.98786972 -177.90093994 41.97549438 C-170.69842002 41.88950935 -163.49617723 41.79000808 -156.29394531 41.68261719 C-153.6051811 41.64321989 -150.9164185 41.60863212 -148.22753906 41.578125 C-144.36504669 41.53251623 -140.50291003 41.47451385 -136.640625 41.4140625 C-135.4363385 41.40251129 -134.232052 41.39096008 -132.99127197 41.37905884 C-131.30998199 41.3492543 -131.30998199 41.3492543 -129.59472656 41.31884766 C-128.60877502 41.30552399 -127.62282349 41.29220032 -126.60699463 41.2784729 C-123.88119283 40.9873093 -122.23370892 40.58806446 -120 39 C-119.18129815 35.43793339 -119.18129815 35.43793339 -119 32 C-117.7934375 31.6596875 -117.7934375 31.6596875 -116.5625 31.3125 C-115.716875 30.879375 -114.87125 30.44625 -114 30 C-113.10613836 27.45224694 -113.10613836 27.45224694 -113 25 C-113.66 25 -114.32 25 -115 25 C-115 25.66 -115 26.32 -115 27 C-117.475 26.01 -117.475 26.01 -120 25 C-120 24.67 -120 24.34 -120 24 C-138.81 23.67 -157.62 23.34 -177 23 C-177 22.67 -177 22.34 -177 22 C-175.81696682 21.99780016 -175.81696682 21.99780016 -174.61003399 21.99555588 C-155.38706879 21.95844519 -136.16428467 21.89937406 -116.94146252 21.81609726 C-107.64529838 21.77634979 -98.34921837 21.74393553 -89.05297852 21.72900391 C-80.94691621 21.7159651 -72.84103934 21.68894372 -64.73508149 21.64538693 C-60.44613266 21.6228221 -56.15741212 21.60708632 -51.86839867 21.60811615 C-47.82419047 21.60886572 -43.78048599 21.5907968 -39.73640823 21.55883217 C-38.25911192 21.55037445 -36.78175883 21.54855494 -35.30444908 21.55419731 C-24.92346007 21.58853806 -15.20018443 20.94633049 -7.0625 13.875 C-3.40772506 9.84244785 -1.65837709 5.11933797 0 0 Z " fill="#3182C3" transform="translate(356,611)"/>
<path d="M0 0 C15.51 0 31.02 0 47 0 C47 3.63 47 7.26 47 11 C35.45 11 23.9 11 12 11 C12 17.27 12 23.54 12 30 C22.56 30 33.12 30 44 30 C44 33.63 44 37.26 44 41 C33.77 41 23.54 41 13 41 C13 47.27 13 53.54 13 60 C24.55 60 36.1 60 48 60 C48 63.63 48 67.26 48 71 C32.16 71 16.32 71 0 71 C0 47.57 0 24.14 0 0 Z " fill="#F9FBFC" transform="translate(749,534)"/>
<path d="M0 0 C6.81184542 3.71093072 10.62283779 8.63023212 13.0546875 15.92578125 C13.67126482 24.35570716 14.16487484 32.75648901 9.0546875 39.92578125 C4.74037233 44.76336731 -0.55221399 48.35380459 -7.10546875 49.20703125 C-14.13941919 49.49659353 -19.40293516 47.63699677 -25.1953125 43.73828125 C-31.56906988 37.21966575 -33.25022855 29.97772817 -33.1640625 21.0703125 C-32.70758411 14.50843569 -30.79981422 8.52478288 -25.9453125 3.92578125 C-18.41385998 -2.08938326 -9.07903835 -3.31132035 0 0 Z " fill="#101B2C" transform="translate(558.9453125,546.07421875)"/>
<path d="M0 0 C5.9180875 4.71477951 9.11905049 9.71754987 10.2734375 17.2265625 C10.66057936 24.26460295 9.02156027 29.85095595 4.86328125 35.55859375 C-0.57416349 40.85352482 -6.28684089 43.8331694 -13.94921875 43.93359375 C-21.84748007 43.7593674 -26.51250805 41.54566055 -31.94921875 35.87109375 C-36.43882347 30.34621488 -38.88793091 23.87561483 -38.54296875 16.66015625 C-36.94066454 8.37131331 -31.98917682 2.22207216 -25.13671875 -2.44140625 C-16.81997888 -6.51130023 -7.49771141 -5.05787113 0 0 Z " fill="#56A0D5" transform="translate(294.13671875,529.44140625)"/>
<path d="M0 0 C4.29925898 2.46809312 7.69161525 5.30239352 11 9 C11 9.66 11 10.32 11 11 C7.7 12.65 4.4 14.3 1 16 C-0.98567708 14.47005208 -2.97135417 12.94010417 -4.95703125 11.41015625 C-10.23653745 7.76598467 -16.86189316 8.47760793 -23 9 C-29.84871463 10.97517789 -33.17276132 14.93284936 -36.75 20.9375 C-39.61728246 28.19283352 -38.98059664 37.2543669 -36.4375 44.5 C-33.82074493 50.14179817 -29.91197518 53.31411963 -24.625 56.375 C-16.72649533 58.25559635 -10.1226467 56.78510489 -3 53 C-0.44937334 50.96169749 -0.44937334 50.96169749 1 49 C4.59391114 50.33488128 7.75490696 51.96022723 11 54 C10.45930559 57.79317925 9.05103111 59.18900934 6.0625 61.5 C-3.45387434 68.44680387 -12.20850324 70.39878317 -24 69 C-33.39349357 66.522836 -41.0125194 62.03919392 -46.0078125 53.61328125 C-51.25748209 43.69405206 -53.91910879 34.26861729 -51.31640625 23.0546875 C-49.23811073 16.86291909 -46.38576512 11.83285768 -42 7 C-41.51015625 6.45601562 -41.0203125 5.91203125 -40.515625 5.3515625 C-29.12702868 -5.75513787 -13.73742472 -6.39614495 0 0 Z " fill="#F6F8F9" transform="translate(649,537)"/>
<path d="M0 0 C4.29 0 8.58 0 13 0 C13 23.43 13 46.86 13 71 C8.71 71 4.42 71 0 71 C0 47.57 0 24.14 0 0 Z " fill="#F2F5F7" transform="translate(485,534)"/>
<path d="M0 0 C0.66 0 1.32 0 2 0 C3.42193327 3.89393058 4.83653073 7.7904899 6.25 11.6875 C6.64574219 12.77095703 7.04148437 13.85441406 7.44921875 14.97070312 C7.84238281 16.05673828 8.23554687 17.14277344 8.640625 18.26171875 C8.99672852 19.24100342 9.35283203 20.22028809 9.71972656 21.22924805 C11.60397851 26.77888027 13.27642551 32.3983829 15 38 C5.76 38 -3.48 38 -13 38 C-11.68985187 32.1043334 -10.51863424 27.2750632 -8.3984375 21.77734375 C-8.0364476 20.83091759 -8.0364476 20.83091759 -7.66714478 19.8653717 C-6.90896753 17.88709656 -6.14218393 15.91229722 -5.375 13.9375 C-4.85358826 12.58160249 -4.33275032 11.22548419 -3.8125 9.86914062 C-2.54826968 6.57685598 -1.27630808 3.28762434 0 0 Z " fill="#101B2B" transform="translate(848,425)"/>
<path d="M0 0 C3.54249117 -0.10825949 7.08165249 -0.18744405 10.625 -0.25 C11.62402344 -0.28351562 12.62304688 -0.31703125 13.65234375 -0.3515625 C19.76768171 -0.43256035 23.37581308 -0.14794175 28 4 C29.60847182 7.21694364 29.61309149 10.52137222 29 14 C26.82425584 16.69105198 25.08934144 18.45532928 22 20 C20.3325394 20.08426094 18.66174813 20.10725143 16.9921875 20.09765625 C16.00605469 20.09443359 15.01992188 20.09121094 14.00390625 20.08789062 C12.97136719 20.07951172 11.93882812 20.07113281 10.875 20.0625 C9.31458984 20.05573242 9.31458984 20.05573242 7.72265625 20.04882812 C5.14841313 20.03701967 2.57419947 20.01908385 0 20 C0 13.4 0 6.8 0 0 Z " fill="#0F1B2C" transform="translate(427,574)"/>
<path d="M0 0 C3.39631472 -0.08107913 6.79068616 -0.14053944 10.1875 -0.1875 C11.14720703 -0.21263672 12.10691406 -0.23777344 13.09570312 -0.26367188 C21.98759922 -0.35597529 21.98759922 -0.35597529 26 3 C28.10101595 5.6740203 27.99846976 7.04284685 27.875 10.5 C26.92256805 14.30972781 26.07793835 15.64628244 23 18 C20.11734851 18.96088383 18.32337729 19.11670941 15.33203125 19.09765625 C14.43935547 19.09443359 13.54667969 19.09121094 12.62695312 19.08789062 C11.23379883 19.07532227 11.23379883 19.07532227 9.8125 19.0625 C8.87212891 19.05798828 7.93175781 19.05347656 6.96289062 19.04882812 C4.64189992 19.03704645 2.32094193 19.01911114 0 19 C0 12.73 0 6.46 0 0 Z " fill="#0D1828" transform="translate(427,545)"/>
<path d="M0 0 C4.09206332 1.808121 6.69807584 4.16345973 9 8 C9.62391938 12.91336509 9.53263057 14.9727839 7.25 19.375 C4.65079698 22.40740352 2.77084213 23.72756275 -1.18359375 24.3359375 C-5.18287366 24.40524911 -7.42740621 24.34111971 -10.9375 22.25 C-14.61701969 18.23597852 -15.41599264 15.54243989 -15.25 9.9609375 C-14.72999704 5.88216431 -12.86871913 3.69980152 -9.75 1.1875 C-6.23330403 -0.33107326 -3.80039173 -0.40718483 0 0 Z " fill="#6DB2DE" transform="translate(260,486)"/>
<path d="M0 0 C0.556875 0.721875 1.11375 1.44375 1.6875 2.1875 C8.26133941 10.18271009 14.8581536 14.89097398 25 17 C29.99751919 17.42933105 34.9843206 17.43856213 39.99658203 17.43237305 C41.48573105 17.44140588 42.97487266 17.4517368 44.46400452 17.46325684 C48.47776719 17.49067459 52.49138821 17.50009048 56.50523233 17.50611091 C60.71064703 17.5155345 64.91595755 17.54174092 69.12130737 17.56611633 C77.07183819 17.60967587 85.02234867 17.63828745 92.97296226 17.66143972 C102.02991408 17.68854813 111.08676055 17.73245602 120.14363694 17.77772844 C138.7623689 17.87042355 157.38112873 17.94217335 176 18 C176 18.33 176 18.66 176 19 C144.32 19 112.64 19 80 19 C79.67 19.66 79.34 20.32 79 21 C78.67 20.67 78.34 20.34 78 20 C77.67 20.66 77.34 21.32 77 22 C76.34 22 75.68 22 75 22 C75 21.01 75 20.02 75 19 C71.88214887 19.64644661 71.88214887 19.64644661 71 22 C69.66666667 21.33333333 68.33333333 20.66666667 67 20 C66.34 21.32 65.68 22.64 65 24 C64.34 22.68 63.68 21.36 63 20 C62.7525 20.804375 62.505 21.60875 62.25 22.4375 C61 25 61 25 58.875 25.8125 C58.25625 25.874375 57.6375 25.93625 57 26 C57 26.66 57 27.32 57 28 C56.34 28 55.68 28 55 28 C54.505 27.01 54.505 27.01 54 26 C53.34 25.67 52.68 25.34 52 25 C52 23.02 52 21.04 52 19 C50.02 19.66 48.04 20.32 46 21 C46 20.34 46 19.68 46 19 C45.01 19.495 45.01 19.495 44 20 C41.66666667 20 39.33333333 20 37 20 C36.01 20.33 35.02 20.66 34 21 C32.515 20.690625 32.515 20.690625 31 20.375 C28.0091599 19.64457534 28.0091599 19.64457534 26.125 21.4375 C25.75375 21.953125 25.3825 22.46875 25 23 C24.34 22.34 23.68 21.68 23 21 C23 20.34 23 19.68 23 19 C19.26513121 18.4254048 15.78706732 18 12 18 C11.67 16.68 11.34 15.36 11 14 C5.5155733 13.25669086 5.5155733 13.25669086 0 13 C0.165 12.236875 0.33 11.47375 0.5 10.6875 C1.21536834 6.84239516 0.81772758 3.78199007 0 0 Z " fill="#3A96DD" transform="translate(154,616)"/>
<path d="M0 0 C2.9375 2.4375 2.9375 2.4375 5 5 C5.33 5.33 5.66 5.66 6 6 C6.49754181 10.89249444 6.4737923 13.11558771 4.125 17.5 C1.65261326 20.07128221 -0.48217516 20.51897867 -4 20.75 C-7.51782484 20.51897867 -9.65261326 20.07128221 -12.125 17.5 C-14.54253769 12.98726299 -14.72214458 11.05501205 -14 6 C-10.39850188 0.35765295 -6.65216643 -1.18515609 0 0 Z " fill="#5FA9DB" transform="translate(236,528)"/>
<path d="M0 0 C0.99 0 1.98 0 3 0 C2.88512252 1.58409994 2.75765492 3.16728963 2.625 4.75 C2.55539063 5.63171875 2.48578125 6.5134375 2.4140625 7.421875 C2.00047157 9.99706379 1.15488375 11.69525374 0 14 C0.33 14.639375 0.66 15.27875 1 15.9375 C2 18 2 18 1.125 20.75 C0.75375 21.4925 0.3825 22.235 0 23 C0.66 23.33 1.32 23.66 2 24 C2.72159424 25.64363134 3.39351421 27.31050386 4 29 C4.99 28.34 5.98 27.68 7 27 C7.99 27.99 8.98 28.98 10 30 C9.649375 30.7425 9.29875 31.485 8.9375 32.25 C7.91303316 35.25510272 7.75051073 36.14402452 9 39 C11.46162334 42.72142731 11.46162334 42.72142731 15.25 44.8125 C16.11625 44.9053125 16.11625 44.9053125 17 45 C17 45.99 17 46.98 17 48 C17.8971875 48.433125 17.8971875 48.433125 18.8125 48.875 C21 50 21 50 24 52 C24.99 52 25.98 52 27 52 C27.33 52.99 27.66 53.98 28 55 C29.98 54.505 29.98 54.505 32 54 C32 53.01 32 52.02 32 51 C31.34 50.34 30.68 49.68 30 49 C31.98 48.505 31.98 48.505 34 48 C34.309375 48.78375 34.61875 49.5675 34.9375 50.375 C36.20947111 53.96790717 36.20947111 53.96790717 39.11914062 56.10180664 C44.37921659 57.74179134 49.88158754 57.41114412 55.34716797 57.42553711 C57.49431368 57.4374684 59.63861316 57.48672681 61.78515625 57.53710938 C63.15884025 57.54657153 64.53254175 57.55380756 65.90625 57.55859375 C67.76733398 57.57877563 67.76733398 57.57877563 69.66601562 57.59936523 C73.85030275 56.84713728 75.322598 55.209132 78 52 C78 53.65 78 55.3 78 57 C78.99 56.34 79.98 55.68 81 55 C85 55 85 55 86.8125 55.9375 C89.79627835 57.38676377 92.72716994 57.62236576 96 58 C96 58.33 96 58.66 96 59 C88.36707672 59.09322558 80.73421346 59.16402886 73.1008482 59.20724869 C69.55522549 59.22800619 66.00999606 59.25610231 62.46459961 59.30175781 C58.37610384 59.35406955 54.28801255 59.37304276 50.19921875 59.390625 C48.94356613 59.41127014 47.68791351 59.43191528 46.39421082 59.45318604 C33.05033918 59.45654446 21.09592409 54.92657399 11.25 45.75 C2.32199154 36.23240608 -2.11716404 24.86524973 -2.1875 11.9375 C-2.20167969 10.75027344 -2.21585938 9.56304688 -2.23046875 8.33984375 C-2.00733324 5.10626986 -1.38825813 2.90272154 0 0 Z " fill="#3C95D9" transform="translate(134,594)"/>
<path d="M0 0 C0.33 0 0.66 0 1 0 C1.81865708 31.00663677 2.12585809 61.98297293 2 93 C8.27 93 14.54 93 21 93 C21 73.2 21 53.4 21 33 C21.33 33 21.66 33 22 33 C22.02312764 40.93613787 22.04091723 48.87226176 22.05181217 56.80842495 C22.05704008 60.49314498 22.06413605 64.17784203 22.07543945 67.86254883 C22.08627162 71.41570831 22.09227753 74.96884563 22.09487724 78.52202034 C22.0967309 79.88045666 22.10035038 81.23889171 22.10573006 82.59731865 C22.11294475 84.49382223 22.11340809 86.39034793 22.11352539 88.28686523 C22.115746 89.36830307 22.11796661 90.44974091 22.12025452 91.56394958 C22 94 22 94 21 95 C19.52347336 95.09880797 18.04232764 95.13079245 16.5625 95.1328125 C15.22058594 95.13474609 15.22058594 95.13474609 13.8515625 95.13671875 C12.44003906 95.13091797 12.44003906 95.13091797 11 95.125 C9.58847656 95.13080078 9.58847656 95.13080078 8.1484375 95.13671875 C7.25382813 95.13542969 6.35921875 95.13414062 5.4375 95.1328125 C4.61121094 95.13168457 3.78492188 95.13055664 2.93359375 95.12939453 C1 95 1 95 0 94 C-0.09525367 91.07805335 -0.12552736 88.17979671 -0.11352539 85.25756836 C-0.11367142 84.3405867 -0.11381744 83.42360504 -0.1139679 82.47883606 C-0.1132684 79.43248164 -0.10547428 76.38618755 -0.09765625 73.33984375 C-0.0957922 71.23377007 -0.09436824 69.12769597 -0.09336853 67.0216217 C-0.08954231 61.46657117 -0.07971114 55.91154659 -0.06866455 50.35650635 C-0.05845267 44.6927526 -0.05387139 39.02899467 -0.04882812 33.36523438 C-0.03808896 22.24347815 -0.0210113 11.12174123 0 0 Z " fill="#060B18" transform="translate(506,405)"/>
<path d="M0 0 C2.51423945 0.36427617 3.6931459 0.63246352 5.34936523 2.61621094 C5.74841064 3.31520508 6.14745605 4.01419922 6.55859375 4.734375 C7.02040039 5.52577881 7.48220703 6.31718262 7.95800781 7.13256836 C8.44624023 7.9963208 8.93447266 8.86007324 9.4375 9.75 C10.50234021 11.58033906 11.56880102 13.40973607 12.63671875 15.23828125 C13.18763184 16.18783691 13.73854492 17.13739258 14.30615234 18.11572266 C17.0409871 22.77258887 19.89487571 27.35375736 22.75 31.9375 C23.56319702 33.25161865 23.56319702 33.25161865 24.39282227 34.59228516 C26.77956204 38.44764774 29.17894366 42.29243237 31.6328125 46.10546875 C32.01727539 46.7094751 32.40173828 47.31348145 32.79785156 47.93579102 C33.7926439 49.49584727 34.79819107 51.04903158 35.8046875 52.6015625 C37 55 37 55 36 58 C31.71 50.74 27.42 43.48 23 36 C20.525 36.495 20.525 36.495 18 37 C18.66 34.69 19.32 32.38 20 30 C19.01 29.67 18.02 29.34 17 29 C16.65657551 27.66923011 16.32380126 26.33568021 16 25 C15.01 24.34 14.02 23.68 13 23 C13 21.68 13 20.36 13 19 C12.34 19 11.68 19 11 19 C9.33333333 15.66666667 7.66666667 12.33333333 6 9 C5.01 9 4.02 9 3 9 C0.87491756 5.81237635 0.4979837 3.73487777 0 0 Z " fill="#6EB9E5" transform="translate(295,463)"/>
<path d="M0 0 C0.33 0 0.66 0 1 0 C1 22.11 1 44.22 1 67 C0.67 67 0.34 67 0 67 C-0.86218265 59.60574973 -1.22690506 52.26432481 -1.38671875 44.82421875 C-1.41224319 43.69603226 -1.43776764 42.56784576 -1.46406555 41.4054718 C-1.51574868 39.03818357 -1.56521094 36.6708459 -1.61254883 34.3034668 C-1.68764489 30.68051004 -1.77822668 27.05813686 -1.86914062 23.43554688 C-1.91761862 21.12762397 -1.96517694 18.81968152 -2.01171875 16.51171875 C-2.04077805 15.4314592 -2.06983734 14.35119965 -2.09977722 13.23820496 C-2.11672134 12.22978043 -2.13366547 11.2213559 -2.15112305 10.18237305 C-2.17031296 9.29986374 -2.18950287 8.41735443 -2.20927429 7.50810242 C-1.97416348 4.69035551 -1.16615613 2.56187169 0 0 Z " fill="#020817" transform="translate(588,431)"/>
<path d="M0 0 C3.54249117 -0.10825949 7.08165249 -0.18744405 10.625 -0.25 C11.62402344 -0.28351562 12.62304688 -0.31703125 13.65234375 -0.3515625 C19.78589963 -0.43280165 23.30719343 -0.06816679 28 4 C27.67 4.99 27.34 5.98 27 7 C26.34257812 6.03320312 26.34257812 6.03320312 25.671875 5.046875 C21.53559853 1.87814858 17.32704584 2.32436419 12.25 2.25 C11.26644531 2.22035156 10.28289062 2.19070313 9.26953125 2.16015625 C6.8467936 2.08959108 4.42339217 2.04251565 2 2 C2 7.61 2 13.22 2 19 C7.94 19 13.88 19 20 19 C20 19.33 20 19.66 20 20 C13.4 20 6.8 20 0 20 C0 13.4 0 6.8 0 0 Z " fill="#0A111D" transform="translate(427,574)"/>
<path d="M0 0 C0.33 0 0.66 0 1 0 C1.17571509 4.58558457 1.30128134 9.16912755 1.38452148 13.75732422 C1.41928743 15.31105758 1.46672049 16.86456981 1.52807617 18.41748047 C1.98056863 30.18228443 0.26601816 37.91981151 -6 48 C-6.88957397 49.45623779 -6.88957397 49.45623779 -7.79711914 50.94189453 C-10.41483257 55.14491242 -10.41483257 55.14491242 -12 57 C-12.66 57 -13.32 57 -14 57 C-13.67 55.68 -13.34 54.36 -13 53 C-12.34 53 -11.68 53 -11 53 C-10.8453125 51.39125 -10.8453125 51.39125 -10.6875 49.75 C-10.02797801 46.15260731 -9.54223809 44.54223809 -7 42 C-6.34 42 -5.68 42 -5 42 C-5.495 40.515 -5.495 40.515 -6 39 C-5.34 38.01 -4.68 37.02 -4 36 C-3.01 36 -2.02 36 -1 36 C-0.67 24.12 -0.34 12.24 0 0 Z " fill="#86CFF1" transform="translate(237,418)"/>
<path d="M0 0 C9.24 0 18.48 0 28 0 C29.1666372 2.33327441 29.08993787 3.58236098 29.02172852 6.17431641 C28.99158409 7.46542831 28.99158409 7.46542831 28.96083069 8.78262329 C28.92027809 10.1779982 28.92027809 10.1779982 28.87890625 11.6015625 C28.85529526 12.55316254 28.83168427 13.50476257 28.80735779 14.48519897 C28.73063367 17.5319478 28.64664697 20.57844801 28.5625 23.625 C28.50928808 25.68748773 28.45654762 27.74998769 28.40429688 29.8125 C28.27500668 34.87515816 28.13920166 39.93760505 28 45 C27.67 45 27.34 45 27 45 C27 30.81 27 16.62 27 2 C18.42 2 9.84 2 1 2 C0.67 1.34 0.34 0.68 0 0 Z " fill="#2A3746" transform="translate(580,403)"/>
<path d="M0 0 C0.495 1.485 0.495 1.485 1 3 C1.495 3.495 1.495 3.495 2 4 C4.87199032 4.1491375 4.87199032 4.1491375 7 3.375 C9 3 9 3 12 5 C14.32387947 5.39387788 16.65793749 5.73486085 19 6 C19 6.33 19 6.66 19 7 C0.52 7 -17.96 7 -37 7 C-37 6.67 -37 6.34 -37 6 C-35.53191895 5.99383667 -35.53191895 5.99383667 -34.03417969 5.98754883 C-30.39578912 5.96574292 -26.75847783 5.91144048 -23.12060547 5.84741211 C-21.54746867 5.82424439 -19.97417704 5.80983921 -18.40087891 5.80444336 C-16.13606428 5.79514374 -13.87368033 5.75414022 -11.609375 5.70703125 C-10.55759064 5.71293022 -10.55759064 5.71293022 -9.48455811 5.71894836 C-5.62974769 5.60428695 -4.26250741 5.26978202 -1.52441406 2.45581055 C-1.02135742 1.64539307 -0.51830078 0.83497559 0 0 Z " fill="#399CE9" transform="translate(211,646)"/>
<path d="M0 0 C0.33 0.66 0.66 1.32 1 2 C0.0625 4.625 0.0625 4.625 -1 7 C-1.66 7 -2.32 7 -3 7 C-3 8.65 -3 10.3 -3 12 C-3.66 12 -4.32 12 -5 12 C-5.66 13.98 -6.32 15.96 -7 18 C-7.66 18 -8.32 18 -9 18 C-9 18.99 -9 19.98 -9 21 C-9.66 21 -10.32 21 -11 21 C-12.07525194 23.65228812 -13.09456151 26.28368454 -14 29 C-14.66 29 -15.32 29 -16 29 C-16.268125 30.093125 -16.53625 31.18625 -16.8125 32.3125 C-17.87663739 35.61692663 -18.34654664 36.94960422 -21 39 C-21.33 38.34 -21.66 37.68 -22 37 C-20.84765625 34.56079102 -20.84765625 34.56079102 -19.0625 31.50390625 C-18.41410156 30.38693359 -17.76570312 29.26996094 -17.09765625 28.11914062 C-16.75234863 27.53366455 -16.40704102 26.94818848 -16.05126953 26.3449707 C-15.02506877 24.60500513 -14.0104284 22.8582378 -12.99609375 21.11132812 C-8.82619279 13.96700661 -4.49766973 6.94239919 0 0 Z " fill="#72BCE6" transform="translate(203,472)"/>
<path d="M0 0 C0.89130413 2.6739124 1.47731534 5.23723823 2 8 C3.32 8.33 4.64 8.66 6 9 C5.67 11.64 5.34 14.28 5 17 C5.99 17 6.98 17 8 17 C8.2475 18.03125 8.495 19.0625 8.75 20.125 C9.56976917 23.08095597 10.39649409 24.58907693 12.1875 27.25 C12.785625 28.1575 13.38375 29.065 14 30 C13.67 30.99 13.34 31.98 13 33 C11.41591638 30.31294159 9.832873 27.62527171 8.25 24.9375 C7.58484375 23.80924805 7.58484375 23.80924805 6.90625 22.65820312 C6.02319189 21.15830295 5.14264201 19.65692314 4.26464844 18.15405273 C3.45510765 16.7751766 2.63627061 15.40169043 1.80566406 14.03540039 C-0.94312543 9.44111857 -1.63218173 6.24141032 -2 1 C-1.34 0.67 -0.68 0.34 0 0 Z " fill="#77BDE4" transform="translate(273,447)"/>
<path d="M0 0 C0.33 0 0.66 0 1 0 C1.19573608 1.43640171 1.38127816 2.87419504 1.5625 4.3125 C1.66691406 5.11300781 1.77132812 5.91351563 1.87890625 6.73828125 C2 9 2 9 1 12 C0.34 12 -0.32 12 -1 12 C-1.0825 12.5775 -1.165 13.155 -1.25 13.75 C-2 16 -2 16 -3.8125 17.6875 C-6.46303456 20.48949368 -7.57628563 23.28202586 -9.05859375 26.8046875 C-10.16050076 29.37427979 -11.38046877 31.71793327 -13 34 C-13.66 34 -14.32 34 -15 34 C-14.42368624 28.03691678 -10.80028179 23.43796368 -7.68164062 18.50195312 C-4.729433 13.68246338 -3.15453848 9.5334098 -2 4 C-0.875 1.5 -0.875 1.5 0 0 Z " fill="#7DC4E8" transform="translate(220,437)"/>
<path d="M0 0 C1 3 1 3 -0.09228516 5.41674805 C-0.65222168 6.35558838 -1.2121582 7.29442871 -1.7890625 8.26171875 C-2.40136719 9.29876953 -3.01367188 10.33582031 -3.64453125 11.40429688 C-4.62486328 13.02948242 -4.62486328 13.02948242 -5.625 14.6875 C-6.25535156 15.75162109 -6.88570312 16.81574219 -7.53515625 17.91210938 C-9.34099468 20.95124911 -11.16550684 23.97808757 -13 27 C-13.50885742 27.84256348 -14.01771484 28.68512695 -14.54199219 29.55322266 C-15.66464129 31.38752944 -16.82726592 33.19730281 -18 35 C-18.33 35 -18.66 35 -19 35 C-18.58451538 29.59869995 -17.7990528 27.69050844 -14 24 C-12.89420418 21.74302121 -11.94630468 19.45990849 -11.02734375 17.12109375 C-10 15 -10 15 -8.4453125 13.44921875 C-6.13399483 11.13165427 -5.85983502 8.09540607 -5 5 C-4.34 4.67 -3.68 4.34 -3 4 C-3.33 3.34 -3.66 2.68 -4 2 C-2.68 2 -1.36 2 0 2 C0 1.34 0 0.68 0 0 Z " fill="#73BBE3" transform="translate(222,476)"/>
<path d="M0 0 C0.33 0 0.66 0 1 0 C1 12.87 1 25.74 1 39 C0.01 39 -0.98 39 -2 39 C-1.8812206 34.40999752 -1.75693958 29.82018823 -1.62768555 25.23046875 C-1.58452692 23.67093901 -1.54283944 22.11136781 -1.50268555 20.55175781 C-1.44451787 18.30260758 -1.38096077 16.05366241 -1.31640625 13.8046875 C-1.29969376 13.1138205 -1.28298126 12.42295349 -1.26576233 11.71115112 C-1.14538407 7.72636037 -0.74845781 3.91541988 0 0 Z " fill="#89CFF2" transform="translate(238,374)"/>
<path d="M0 0 C0.33 0.66 0.66 1.32 1 2 C3.01669827 3.13350534 3.01669827 3.13350534 5 4 C3.625 6 3.625 6 2 8 C1.34 8 0.68 8 0 8 C0.33 8.99 0.66 9.98 1 11 C0.21625 11.433125 -0.5675 11.86625 -1.375 12.3125 C-4.21698375 13.89220247 -4.21698375 13.89220247 -6 17 C-6.66 17 -7.32 17 -8 17 C-8 17.66 -8 18.32 -8 19 C-9.32 18.67 -10.64 18.34 -12 18 C-11.46890625 17.53851562 -10.9378125 17.07703125 -10.390625 16.6015625 C-4.97186628 11.59811011 -2.1885941 7.02653894 0 0 Z " fill="#3A8FD1" transform="translate(356,611)"/>
<path d="M0 0 C3.63 0 7.26 0 11 0 C10.25 2.9375 10.25 2.9375 9 6 C6.875 6.875 6.875 6.875 5 7 C5 7.66 5 8.32 5 9 C4.34 9 3.68 9 3 9 C2.67 8.34 2.34 7.68 2 7 C1.34 6.67 0.68 6.34 0 6 C0 4.02 0 2.04 0 0 Z " fill="#3589CC" transform="translate(206,635)"/>
<path d="M0 0 C0.268125 0.598125 0.53625 1.19625 0.8125 1.8125 C1.98493467 3.97224808 3.19369282 5.35790256 5 7 C4.01 7.66 3.02 8.32 2 9 C2 9.99 2 10.98 2 12 C-1.28696233 12.79953138 -2.71023192 13.09658936 -6 12 C-4.68139111 7.38486888 -2.78644563 3.90102388 0 0 Z " fill="#4B9BD7" transform="translate(186,578)"/>
<path d="M0 0 C0.33 0 0.66 0 1 0 C1 8.58 1 17.16 1 26 C-1.46537497 21.06925007 -2.18231532 18.12622567 -2.1875 12.6875 C-2.20167969 11.37136719 -2.21585937 10.05523437 -2.23046875 8.69921875 C-2.01736646 5.27874633 -1.49124982 3.04733659 0 0 Z " fill="#19222D" transform="translate(398,439)"/>
<path d="M0 0 C0.33 0 0.66 0 1 0 C1 16.5 1 33 1 50 C0.67 50 0.34 50 0 50 C-0.02505615 48.71311279 -0.0501123 47.42622559 -0.07592773 46.1003418 C-0.17001572 41.33119546 -0.27023313 36.56219429 -0.37231445 31.79321289 C-0.41565803 29.72814324 -0.45733352 27.66303788 -0.49731445 25.59790039 C-0.55503083 22.63156365 -0.61872151 19.66540655 -0.68359375 16.69921875 C-0.70030624 15.7741301 -0.71701874 14.84904144 -0.73423767 13.8959198 C-0.75418289 13.03525406 -0.77412811 12.17458832 -0.79467773 11.2878418 C-0.81022202 10.53061325 -0.8257663 9.7733847 -0.84178162 8.99320984 C-0.93632323 6.79075185 -0.93632323 6.79075185 -2 4 C-1.0625 1.8125 -1.0625 1.8125 0 0 Z " fill="#000108" transform="translate(873,555)"/>
<path d="M0 0 C0.7425 0.2475 1.485 0.495 2.25 0.75 C1.25 3.75 1.25 3.75 -1.33203125 5.171875 C-2.39808594 5.61015625 -3.46414063 6.0484375 -4.5625 6.5 C-5.62082031 6.94859375 -6.67914063 7.3971875 -7.76953125 7.859375 C-10.72380744 8.74217313 -11.9400769 8.86580482 -14.75 7.75 C-14.09 6.43 -13.43 5.11 -12.75 3.75 C-10.77 4.41 -8.79 5.07 -6.75 5.75 C-6.75 5.09 -6.75 4.43 -6.75 3.75 C-3.60436893 -0.3276699 -3.60436893 -0.3276699 0 0 Z " fill="#3289CD" transform="translate(354.75,643.25)"/>
<path d="M0 0 C0.33 0 0.66 0 1 0 C1.00386719 1.54107422 1.00386719 1.54107422 1.0078125 3.11328125 C1.19036139 11.59360023 1.98801875 17.592572 6.8203125 24.86328125 C7.20960938 25.56839844 7.59890625 26.27351563 8 27 C7.67 27.99 7.34 28.98 7 30 C6.731875 29.195625 6.46375 28.39125 6.1875 27.5625 C5.795625 26.716875 5.40375 25.87125 5 25 C4.01 24.67 3.02 24.34 2 24 C1.0859375 22.328125 1.0859375 22.328125 0.375 20.25 C0.12878906 19.53328125 -0.11742187 18.8165625 -0.37109375 18.078125 C-1.0791494 15.73846285 -1.62257545 13.41551712 -2 11 C-1.67 11 -1.34 11 -1 11 C-0.67 7.37 -0.34 3.74 0 0 Z " fill="#69A6CA" transform="translate(289,434)"/>
<path d="M0 0 C0.33 0 0.66 0 1 0 C1 6.6 1 13.2 1 20 C1.66 20.33 2.32 20.66 3 21 C2.42978066 26.3503559 1.79265639 31.67787852 1 37 C0.67 37 0.34 37 0 37 C0 24.79 0 12.58 0 0 Z " fill="#8FD7F7" transform="translate(219,407)"/>
<path d="M0 0 C2.91549296 2.53521127 2.91549296 2.53521127 3.375 5.0625 C3.684375 6.0215625 3.684375 6.0215625 4 7 C6.49034386 8.29660434 6.49034386 8.29660434 9 9 C8.34 9.66 7.68 10.32 7 11 C-0.18421053 10.54385965 -0.18421053 10.54385965 -4 8 C-2.68 6.68 -1.36 5.36 0 4 C-0.99 3.01 -1.98 2.02 -3 1 C-2.01 0.67 -1.02 0.34 0 0 Z " fill="#338ACD" transform="translate(167,642)"/>
<path d="M0 0 C0.99 0.33 1.98 0.66 3 1 C2.0420426 8.64936131 0.19627694 14.51338869 -4 21 C-4.99 20.67 -5.98 20.34 -7 20 C-6.01 18.515 -6.01 18.515 -5 17 C-4.34 17 -3.68 17 -3 17 C-2.67 14.69 -2.34 12.38 -2 10 C-1.34 10 -0.68 10 0 10 C0 6.7 0 3.4 0 0 Z " fill="#3C95D8" transform="translate(374,612)"/>
<path d="M0 0 C5.56225539 1.34842555 8.73442841 5.56689879 12 10 C13.1577506 13.47325181 13.06866652 16.36067448 13 20 C12.67 20 12.34 20 12 20 C11.34 17.36 10.68 14.72 10 12 C9.01 12.33 8.02 12.66 7 13 C6.938125 11.4221875 6.938125 11.4221875 6.875 9.8125 C5.72606348 4.80641945 4.06083679 3.93762661 0 1 C0 0.67 0 0.34 0 0 Z " fill="#63B2E5" transform="translate(290,528)"/>
<path d="M0 0 C0.66 0.33 1.32 0.66 2 1 C1.43450607 4.93053185 0.28617442 7.53407537 -1.9375 10.8125 C-2.46214844 11.60269531 -2.98679688 12.39289063 -3.52734375 13.20703125 C-4.01332031 13.79871094 -4.49929687 14.39039063 -5 15 C-5.66 15 -6.32 15 -7 15 C-6.67 13.68 -6.34 12.36 -6 11 C-5.34 11 -4.68 11 -4 11 C-3.896875 9.9275 -3.79375 8.855 -3.6875 7.75 C-3.02599507 4.14179128 -2.42516579 2.63604977 0 0 Z " fill="#76BCE5" transform="translate(230,460)"/>
<path d="M0 0 C0.66 0.33 1.32 0.66 2 1 C0.51637716 7.26418531 -3.24162156 11.91513505 -7 17 C-7.66 16.67 -8.32 16.34 -9 16 C-6.03 10.72 -3.06 5.44 0 0 Z " fill="#63B1E3" transform="translate(174,521)"/>
<path d="M0 0 C4.29 0 8.58 0 13 0 C12.34 1.65 11.68 3.3 11 5 C10.21625 4.505 9.4325 4.01 8.625 3.5 C6.21447673 1.83462035 6.21447673 1.83462035 4 2 C3.67 2.66 3.34 3.32 3 4 C2.01 3.34 1.02 2.68 0 2 C0 1.34 0 0.68 0 0 Z " fill="#519AD2" transform="translate(219,566)"/>
<path d="M0 0 C3 1 3 1 4.75 3.5 C6.33592781 7.94059786 6.3476232 11.47836951 5 16 C2.9375 18.0625 2.9375 18.0625 1 19 C1.50603992 16.83125748 1.99983813 15.00032373 3 13 C3.35512837 7.5842924 3.36699949 4.48933265 0 0 Z " fill="#0C131F" transform="translate(238,529)"/>
<path d="M0 0 C3 1 3 1 3.9375 2.75 C4.03152919 6.13505099 2.21107227 7.58792116 0 10 C-1.06775224 8.03533587 -2.06553465 6.03144641 -3 4 C-2 2 -2 2 0 0 Z " fill="#3B8DCE" transform="translate(140,621)"/>
<path d="M0 0 C0.89589844 -0.01417969 1.79179688 -0.02835937 2.71484375 -0.04296875 C5.0625 0.1875 5.0625 0.1875 7.0625 2.1875 C5.39688601 3.85311399 3.40287295 3.35865945 1.125 3.375 C0.22910156 3.38917969 -0.66679688 3.40335937 -1.58984375 3.41796875 C-3.9375 3.1875 -3.9375 3.1875 -5.9375 1.1875 C-4.27188601 -0.47811399 -2.27787295 0.01634055 0 0 Z " fill="#242D39" transform="translate(750.9375,420.8125)"/>
<path d="M0 0 C0.33 0 0.66 0 1 0 C1.22119939 2.62450086 1.42746669 5.24870486 1.625 7.875 C1.68945312 8.62136719 1.75390625 9.36773438 1.8203125 10.13671875 C1.96087365 12.0870047 1.98759849 14.04469467 2 16 C1.34 16.66 0.68 17.32 0 18 C-1.80230168 14.17010894 -2.19622241 11.21878192 -2 7 C-1.67 7 -1.34 7 -1 7 C-0.67 4.69 -0.34 2.38 0 0 Z " fill="#387FB7" transform="translate(152,600)"/>
<path d="M0 0 C0.66 0.33 1.32 0.66 2 1 C2 2.32 2 3.64 2 5 C2.99 5.33 3.98 5.66 5 6 C4.5359375 6.8353125 4.5359375 6.8353125 4.0625 7.6875 C2.94238179 10.12540433 2.43962636 12.36224186 2 15 C1.67 15 1.34 15 1 15 C1 11.37 1 7.74 1 4 C0.34 3.67 -0.32 3.34 -1 3 C-0.67 2.01 -0.34 1.02 0 0 Z " fill="#3F8FCD" transform="translate(357,597)"/>
<path d="M0 0 C1.65 0 3.3 0 5 0 C4.67 1.32 4.34 2.64 4 4 C4.66 4 5.32 4 6 4 C6.33 5.98 6.66 7.96 7 10 C6.34 10 5.68 10 5 10 C3.35 6.7 1.7 3.4 0 0 Z " fill="#71B8E3" transform="translate(287,481)"/>
<path d="M0 0 C0.33 0.66 0.66 1.32 1 2 C8.59 2 16.18 2 24 2 C24 2.33 24 2.66 24 3 C11.625 3.495 11.625 3.495 -1 4 C-0.67 2.68 -0.34 1.36 0 0 Z " fill="#010513" transform="translate(836,459)"/>
<path d="M0 0 C0.33 0 0.66 0 1 0 C1.19573608 1.43640171 1.38127816 2.87419504 1.5625 4.3125 C1.66691406 5.11300781 1.77132812 5.91351563 1.87890625 6.73828125 C2 9 2 9 1 12 C-0.32 11.67 -1.64 11.34 -3 11 C-2.53199289 6.94393835 -2.12046792 3.53411321 0 0 Z " fill="#74B3D9" transform="translate(220,437)"/>
<path d="M0 0 C1.32 0.33 2.64 0.66 4 1 C4 2.32 4 3.64 4 5 C1.5 6.75 1.5 6.75 -1 8 C-1.93065133 5.39417629 -2.14917407 4.35801776 -1.0625 1.75 C-0.711875 1.1725 -0.36125 0.595 0 0 Z " fill="#4998D2" transform="translate(138,583)"/>
<path d="M0 0 C0.66 0.33 1.32 0.66 2 1 C1.731875 1.515625 1.46375 2.03125 1.1875 2.5625 C-0.32349407 5.66401415 -1.65572726 8.82262806 -3 12 C-3.99 11.67 -4.98 11.34 -6 11 C-4.02 7.37 -2.04 3.74 0 0 Z " fill="#52A3DC" transform="translate(193,565)"/>
<path d="M0 0 C0 0.99 0 1.98 0 3 C-6.6 2.67 -13.2 2.34 -20 2 C-20 1.67 -20 1.34 -20 1 C-17.79187393 0.83060951 -15.58348776 0.66460778 -13.375 0.5 C-12.14523437 0.4071875 -10.91546875 0.314375 -9.6484375 0.21875 C-6.41962143 0.02515931 -3.23321325 -0.03979339 0 0 Z " fill="#323D4A" transform="translate(765,402)"/>
<path d="M0 0 C0.33 0 0.66 0 1 0 C1 4.95 1 9.9 1 15 C0.67 15 0.34 15 0 15 C-0.33 12.36 -0.66 9.72 -1 7 C-1.66 7 -2.32 7 -3 7 C-1.125 2.25 -1.125 2.25 0 0 Z M-4 7 C-3.34 7.66 -2.68 8.32 -2 9 C-2.99 9.495 -2.99 9.495 -4 10 C-4 9.01 -4 8.02 -4 7 Z " fill="#75B4DC" transform="translate(287,423)"/>
<path d="M0 0 C0.99 0.33 1.98 0.66 3 1 C0.03 3.97 -2.94 6.94 -6 10 C-6.33 8.68 -6.66 7.36 -7 6 C-5.68 5.67 -4.36 5.34 -3 5 C-3 4.34 -3 3.68 -3 3 C-2.34 3 -1.68 3 -1 3 C-0.67 2.01 -0.34 1.02 0 0 Z " fill="#3794DA" transform="translate(366,634)"/>
<path d="M0 0 C0.33 0.66 0.66 1.32 1 2 C-0.21484375 4.3828125 -0.21484375 4.3828125 -1.9375 7.125 C-2.50339844 8.03507813 -3.06929687 8.94515625 -3.65234375 9.8828125 C-4.09707031 10.58148437 -4.54179687 11.28015625 -5 12 C-5.84653438 8.9409326 -6.24513185 7.00906864 -5 4 C-4.01 3.67 -3.02 3.34 -2 3 C-1.34 2.01 -0.68 1.02 0 0 Z " fill="#65B4E4" transform="translate(194,525)"/>
<path d="M0 0 C2.07945026 3.11917539 2.20785576 3.58741143 2 7.0625 C2 8.361875 2 9.66125 2 11 C2.66 11.66 3.32 12.32 4 13 C3.01 13.495 3.01 13.495 2 14 C1.34 14.99 0.68 15.98 0 17 C0 11.39 0 5.78 0 0 Z " fill="#76B4DC" transform="translate(273,426)"/>
<path d="M0 0 C0.30421875 0.62003906 0.6084375 1.24007812 0.921875 1.87890625 C1.95914013 4.00934616 1.95914013 4.00934616 3.25 5.9375 C4 8 4 8 3.125 10.75 C2.75375 11.4925 2.3825 12.235 2 13 C0.21590198 9.93753253 -0.22880021 7.77920727 -0.125 4.25 C-0.10695312 3.45078125 -0.08890625 2.6515625 -0.0703125 1.828125 C-0.04710937 1.22484375 -0.02390625 0.6215625 0 0 Z " fill="#439DE1" transform="translate(132,604)"/>
<path d="M0 0 C0 0.99 0 1.98 0 3 C-3.96 3 -7.92 3 -12 3 C-7.28954732 0.64477366 -5.22786799 -0.1136493 0 0 Z " fill="#4A95CC" transform="translate(286,570)"/>
<path d="M0 0 C2.82858266 3.36736031 4.4998253 6.87451958 6 11 C5.67 11.99 5.34 12.98 5 14 C4.1533966 12.61217515 3.32324661 11.21430603 2.5 9.8125 C2.0359375 9.03519531 1.571875 8.25789062 1.09375 7.45703125 C-0.10729647 4.75896614 -0.20741043 2.9193018 0 0 Z " fill="#0A0F17" transform="translate(825,554)"/>
<path d="M0 0 C1.98 0.99 1.98 0.99 4 2 C4 3.32 4 4.64 4 6 C4.66 6.33 5.32 6.66 6 7 C6.33 7.99 6.66 8.98 7 10 C6.01 10.495 6.01 10.495 5 11 C4.16151196 9.54462432 3.32936066 8.08559627 2.5 6.625 C1.80390625 5.40683594 1.80390625 5.40683594 1.09375 4.1640625 C0 2 0 2 0 0 Z " fill="#6EBAE4" transform="translate(294,492)"/>
<path d="M0 0 C1.32 0.33 2.64 0.66 4 1 C4.33 2.98 4.66 4.96 5 7 C4.01 7.66 3.02 8.32 2 9 C1.34 6.03 0.68 3.06 0 0 Z " fill="#71B2DD" transform="translate(295,463)"/>
<path d="M0 0 C2.97 0.495 2.97 0.495 6 1 C4.71937515 2.7074998 3.38232443 4.37373596 2 6 C1.34 6 0.68 6 0 6 C0 5.34 0 4.68 0 4 C-0.99 3.67 -1.98 3.34 -3 3 C-2.01 2.34 -1.02 1.68 0 1 C0 0.67 0 0.34 0 0 Z " fill="#3381C1" transform="translate(334,632)"/>
<path d="M0 0 C0.33 0.99 0.66 1.98 1 3 C3.00016466 4.20882096 3.00016466 4.20882096 5 5 C4.67 6.65 4.34 8.3 4 10 C1.16625119 6.79663178 0.4794463 4.21912747 0 0 Z " fill="#4697D3" transform="translate(351,586)"/>
<path d="M0 0 C1.43088528 2.86177057 0.59991697 4.93375773 0 8 C-0.66 8 -1.32 8 -2 8 C-2.33 9.32 -2.66 10.64 -3 12 C-4.21386936 8.35839192 -3.6674695 7.66834531 -2.0625 4.3125 C-1.49208984 3.10013672 -1.49208984 3.10013672 -0.91015625 1.86328125 C-0.60980469 1.24839844 -0.30945313 0.63351562 0 0 Z " fill="#0D131F" transform="translate(567,487)"/>
<path d="M0 0 C0.66 0 1.32 0 2 0 C2.33 1.65 2.66 3.3 3 5 C2.01 5 1.02 5 0 5 C-0.66 6.32 -1.32 7.64 -2 9 C-1.125 2.25 -1.125 2.25 0 0 Z " fill="#111722" transform="translate(848,425)"/>
<path d="M0 0 C-1.45449401 1.0055761 -2.91372443 2.00430435 -4.375 3 C-5.59316406 3.8353125 -5.59316406 3.8353125 -6.8359375 4.6875 C-9 6 -9 6 -11 6 C-11 5.01 -11 4.02 -11 3 C-9.73581754 2.30034557 -8.46334598 1.61565237 -7.1875 0.9375 C-6.47980469 0.55464844 -5.77210938 0.17179688 -5.04296875 -0.22265625 C-3 -1 -3 -1 0 0 Z " fill="#0B111A" transform="translate(273,526)"/>
<path d="M0 0 C0.433125 0.474375 0.86625 0.94875 1.3125 1.4375 C3.02309613 3.23686957 3.02309613 3.23686957 6 4 C6 5.98 6 7.96 6 10 C2.51668565 6.98112756 1.20842856 4.43090471 0 0 Z " fill="#6CB9E7" transform="translate(301,504)"/>
<path d="M0 0 C0.99 0.33 1.98 0.66 3 1 C1.68 3.31 0.36 5.62 -1 8 C-1.33 8 -1.66 8 -2 8 C-1.125 1.125 -1.125 1.125 0 0 Z " fill="#6BB5E0" transform="translate(205,503)"/>
<path d="M0 0 C0.598125 0.165 1.19625 0.33 1.8125 0.5 C4.11344336 1.1114124 4.11344336 1.1114124 7 1 C7.66 1.66 8.32 2.32 9 3 C5.37 3 1.74 3 -2 3 C-1.34 2.01 -0.68 1.02 0 0 Z " fill="#3286C9" transform="translate(214,649)"/>
<path d="M0 0 C0.33 0.66 0.66 1.32 1 2 C0.0625 4.625 0.0625 4.625 -1 7 C-1.66 7 -2.32 7 -3 7 C-3.33 7.99 -3.66 8.98 -4 10 C-4.33 9.34 -4.66 8.68 -5 8 C-4.00390625 6.0546875 -4.00390625 6.0546875 -2.5625 3.875 C-2.08941406 3.15054687 -1.61632812 2.42609375 -1.12890625 1.6796875 C-0.75636719 1.12539063 -0.38382813 0.57109375 0 0 Z " fill="#7BC6EB" transform="translate(203,472)"/>
<path d="M0 0 C2.27795022 2.27795022 3.05219877 3.93787293 4 7 C3.625 9.3125 3.625 9.3125 3 11 C0 4.5 0 4.5 0 0 Z " fill="#0F1620" transform="translate(526,430)"/>
<path d="M0 0 C2.0625 0.4375 2.0625 0.4375 4 1 C3.67 1.66 3.34 2.32 3 3 C2.34 3 1.68 3 1 3 C1 3.99 1 4.98 1 6 C0.34 5.67 -0.32 5.34 -1 5 C-1 1 -1 1 0 0 Z " fill="#66B3E2" transform="translate(226,529)"/>
</svg>
